<svg xmlns="http://www.w3.org/2000/svg" viewBox="0 0 66 69" fill-rule="evenodd" stroke-linejoin="round" stroke-miterlimit="2"><path d="M19.771 15.778C9.679 20.034 2.667 29.138 2.667 39.763c0 14.741 13.508 26.553 29.974 26.553s29.965-11.812 29.965-26.553c0-8.034-4.011-15.197-10.325-20.054.397-.21.768-.457 1.113-.74a6.02 6.02 0 0 0 .975-1c6.693 5.352 10.911 13.136 10.911 21.793 0 16.126-14.629 29.218-32.639 29.218C14.622 68.981.002 55.889.002 39.763c0-9.482 5.055-17.915 12.878-23.253 2.407.017 5.003-.349 6.021-.534.328-.06.612-.128.871-.198z"/><path d="M44.785 21.103c3.58 5.439 5.676 12.001 5.676 19.062 0 11.851-5.9 22.296-14.836 28.393-.207.138-.483.086-.621-.116a.44.44 0 0 1 .121-.618c8.703-5.939 14.448-16.114 14.448-27.659 0-7.063-2.156-13.615-5.814-18.996l1.026-.066z"/><path d="M62.768 48.644c-6.739 2.87-17.98 4.744-30.698 4.744-11.967 0-22.628-1.66-29.462-4.248-.229-.087-.486.029-.573.258s.029.486.258.573c6.907 2.616 17.681 4.305 29.777 4.305 12.863 0 24.23-1.911 31.046-4.815.226-.096.331-.357.235-.583s-.357-.331-.583-.235zM23.887 28.768a2.92 2.92 0 0 0-2.916-2.917H10.947a2.92 2.92 0 0 0-2.916 2.917v5.833a2.92 2.92 0 0 0 2.916 2.916h10.024a2.92 2.92 0 0 0 2.916-2.916v-5.833zm-2.221 0v5.833c0 .384-.311.695-.695.695H10.947c-.384 0-.695-.312-.695-.695v-5.833c0-.384.312-.696.695-.696h10.024c.384 0 .695.312.695.696z"/><path d="M44.355 28.768a2.92 2.92 0 0 0-2.916-2.917H31.416a2.92 2.92 0 0 0-2.916 2.917v5.833a2.92 2.92 0 0 0 2.916 2.916H41.44a2.92 2.92 0 0 0 2.916-2.916v-5.833zm-2.221 0v5.833c0 .384-.311.695-.695.695H31.416c-.384 0-.695-.312-.695-.695v-5.833c0-.384.312-.696.695-.696H41.44c.384 0 .695.312.695.696zm-28.237 8.749l-.104 2.647c0 11.544 5.745 21.72 14.448 27.659a.45.45 0 0 1 .112.618.44.44 0 0 1-.612.116c-8.936-6.097-14.836-16.541-14.836-28.393A38.36 38.36 0 0 1 13 37.517h.897zm2.07-11.666c1.751-3.886 4.201-7.377 7.176-10.301a12.47 12.47 0 0 1 .932.337 33.3 33.3 0 0 0-7.133 9.964h-.975z"/><path d="M23.894 30.938l4.606.224v.889l-4.606-.224v-.889zm20.46-.135c6.823-.547 12.8-1.58 17.32-2.945.233-.071.483.063.552.298s-.06.482-.293.554c-4.589 1.383-10.653 2.432-17.579 2.984v-.89zM8.032 29.648a51.3 51.3 0 0 1-4.744-1.315.44.44 0 0 1-.276-.562c.078-.233.328-.359.561-.281 1.346.449 2.838.866 4.459 1.246v.03.881zm13.79-20.655l2.165-2.894C27.764 1.497 34.182-.78 40.5.24l3.459.559c6.044.976 10.636 5.369 11.274 10.783l.281 2.385c.22 1.87-.566 3.724-2.123 5.002-.53.435-1.128.786-1.768 1.046-.663.415-1.487.5-2.346.599-4.901.563-12.357 1.934-21.868-3.109-6.171-3.272-5.611-2.054-8.507-1.529-1.612.292-7.149 1.036-9.666.008-2.806-1.147-3.146-3.339-3.146-3.34-.688-2.83 2.049-4.14 3.466-4.516 2.579-.684 4.552-.18 6.056.034l6.209.83zm3.908-1.516l-2.13 2.847a2.22 2.22 0 0 1-2.073.871l-6.228-.833c-1.285-.183-2.97-.671-5.174-.086-.366.097-.871.287-1.313.601-.364.258-.709.642-.563 1.244 0 0 .255 1.165 1.828 1.808.79.323 1.966.371 3.166.361a34.7 34.7 0 0 0 5.264-.498c1.672-.303 2.361-.738 3.508-.693 1.158.045 2.836.537 6.435 2.446 8.944 4.743 15.965 3.394 20.574 2.865.514-.059 1.025-.027 1.421-.275.109-.068.223-.127.342-.175a4.63 4.63 0 0 0 1.195-.706c.947-.777 1.46-1.888 1.327-3.025l-.281-2.385c-.529-4.487-4.415-8.041-9.423-8.85l-3.459-.559c-5.504-.889-11.112 1.044-14.416 5.043z"/><path d="M8.295 13.626s5.541-3.172 22.131 4.04c7.861 3.417 15.702 2.525 20.426 1.068 2.122-.655 3.634-1.441 4.301-2.004a.89.89 0 0 0 .106-1.252.89.89 0 0 0-1.252-.106c-.567.48-1.873 1.107-3.678 1.664-4.44 1.37-11.808 2.211-19.194-.999-17.758-7.719-23.757-3.931-23.757-3.931a.89.89 0 0 0-.302 1.219.89.89 0 0 0 1.219.302z"/></svg>