<svg xmlns="http://www.w3.org/2000/svg" xmlns:xlink="http://www.w3.org/1999/xlink" viewBox="0 0 252 69" fill-rule="evenodd" stroke-linejoin="round" stroke-miterlimit="2"><g fill-rule="nonzero"><use xlink:href="#B"/><use xlink:href="#C"/><use xlink:href="#D"/><use xlink:href="#B"/><use xlink:href="#C"/><use xlink:href="#D"/></g><path d="M19.771 15.778C9.679 20.034 2.667 29.138 2.667 39.763c0 14.741 13.508 26.553 29.974 26.553s29.965-11.812 29.965-26.553c0-8.034-4.011-15.197-10.325-20.054.397-.21.768-.457 1.113-.74a6.02 6.02 0 0 0 .975-1c6.693 5.352 10.911 13.136 10.911 21.793 0 16.126-14.629 29.218-32.639 29.218C14.622 68.981.002 55.889.002 39.763c0-9.482 5.055-17.915 12.878-23.253 2.407.017 5.003-.349 6.021-.534.328-.06.612-.128.871-.198z"/><path d="M44.785 21.103c3.58 5.439 5.676 12.001 5.676 19.062 0 11.851-5.9 22.296-14.836 28.393-.207.138-.483.086-.621-.116a.44.44 0 0 1 .121-.618c8.703-5.939 14.448-16.114 14.448-27.659 0-7.063-2.156-13.615-5.814-18.996l1.026-.066z"/><path d="M62.768 48.644c-6.739 2.87-17.98 4.744-30.698 4.744-11.967 0-22.628-1.66-29.462-4.248-.229-.087-.486.029-.573.258s.029.486.258.573c6.907 2.616 17.681 4.305 29.777 4.305 12.863 0 24.23-1.911 31.046-4.815.226-.096.331-.357.235-.583s-.357-.331-.583-.235zM23.887 28.768a2.92 2.92 0 0 0-2.916-2.917H10.947a2.92 2.92 0 0 0-2.916 2.917v5.833a2.92 2.92 0 0 0 2.916 2.916h10.024a2.92 2.92 0 0 0 2.916-2.916v-5.833zm-2.221 0v5.833c0 .384-.311.695-.695.695H10.947c-.384 0-.695-.312-.695-.695v-5.833c0-.384.312-.696.695-.696h10.024c.384 0 .695.312.695.696z"/><path d="M44.355 28.768a2.92 2.92 0 0 0-2.916-2.917H31.416a2.92 2.92 0 0 0-2.916 2.917v5.833a2.92 2.92 0 0 0 2.916 2.916H41.44a2.92 2.92 0 0 0 2.916-2.916v-5.833zm-2.221 0v5.833c0 .384-.311.695-.695.695H31.416c-.384 0-.695-.312-.695-.695v-5.833c0-.384.312-.696.695-.696H41.44c.384 0 .695.312.695.696zm-28.237 8.749l-.104 2.647c0 11.544 5.745 21.72 14.448 27.659a.45.45 0 0 1 .112.618.44.44 0 0 1-.612.116c-8.936-6.097-14.836-16.541-14.836-28.393A38.36 38.36 0 0 1 13 37.517h.897zm2.07-11.666c1.751-3.886 4.201-7.377 7.176-10.301a12.47 12.47 0 0 1 .932.337 33.3 33.3 0 0 0-7.133 9.964h-.975z"/><path d="M23.894 30.938l4.606.224v.889l-4.606-.224v-.889zm20.46-.135c6.823-.547 12.8-1.58 17.32-2.945.233-.071.483.063.552.298s-.06.482-.293.554c-4.589 1.383-10.653 2.432-17.579 2.984v-.89zM8.032 29.648a51.3 51.3 0 0 1-4.744-1.315.44.44 0 0 1-.276-.562c.078-.233.328-.359.561-.281 1.346.449 2.838.866 4.459 1.246v.03.881zm13.79-20.655l2.165-2.894C27.764 1.497 34.182-.78 40.5.24l3.459.559c6.044.976 10.636 5.369 11.274 10.783l.281 2.385c.22 1.87-.566 3.724-2.123 5.002-.53.435-1.128.786-1.768 1.046-.663.415-1.487.5-2.346.599-4.901.563-12.357 1.934-21.868-3.109-6.171-3.272-5.611-2.054-8.507-1.529-1.612.292-7.149 1.036-9.666.008-2.806-1.147-3.146-3.339-3.146-3.34-.688-2.83 2.049-4.14 3.466-4.516 2.579-.684 4.552-.18 6.056.034l6.209.83zm3.908-1.516l-2.13 2.847a2.22 2.22 0 0 1-2.073.871l-6.228-.833c-1.285-.183-2.97-.671-5.174-.086-.366.097-.871.287-1.313.601-.364.258-.709.642-.563 1.244 0 0 .255 1.165 1.828 1.808.79.323 1.966.371 3.166.361a34.7 34.7 0 0 0 5.264-.498c1.672-.303 2.361-.738 3.508-.693 1.158.045 2.836.537 6.435 2.446 8.944 4.743 15.965 3.394 20.574 2.865.514-.059 1.025-.027 1.421-.275.109-.068.223-.127.342-.175a4.63 4.63 0 0 0 1.195-.706c.947-.777 1.46-1.888 1.327-3.025l-.281-2.385c-.529-4.487-4.415-8.041-9.423-8.85l-3.459-.559c-5.504-.889-11.112 1.044-14.416 5.043z"/><path d="M8.295 13.626s5.541-3.172 22.131 4.04c7.861 3.417 15.702 2.525 20.426 1.068 2.122-.655 3.634-1.441 4.301-2.004a.89.89 0 0 0 .106-1.252.89.89 0 0 0-1.252-.106c-.567.48-1.873 1.107-3.678 1.664-4.44 1.37-11.808 2.211-19.194-.999-17.758-7.719-23.757-3.931-23.757-3.931a.89.89 0 0 0-.302 1.219.89.89 0 0 0 1.219.302z"/><defs ><path id="B" d="M98.965 18.128v-1.124c0-.462-.173-.936-.477-1.429-.356-.566-.841-1.077-1.431-1.532-.798-.596-1.075-1.204-1.075-1.668 0-.311.087-.576.251-.799.191-.264.494-.49.971-.596.399-.088.841-.155 1.327-.199l.078-.004c1.318 0 2.402.127 3.252.368s1.934.766 3.26 1.606c.72.482 1.119 1.219 1.119 2.244 0 .517-.095 1.128-.312 1.833l-.217.73 3.07-.2 5.489-.245c.659 0 1.5-.176 2.541-.509.754-.236 1.37-.344 1.838-.344 1.136 0 2.194.207 3.174.616.945.399 1.821.95 2.619 1.656.598.474.867 1.034.867 1.641 0 .54-.269 1.076-.962 1.501-.468.282-1.197.462-2.22.462-.564 0-1.249-.052-2.064-.16-.546-.072-1.621-.147-3.226-.228l.286.201c.59.375.876.904.876 1.573 0 .362-.165.867-.59 1.471l-.26.348c.035-.004.069-.006.104-.006.208 0 .512.042.928.144.954.21 1.613.503 1.994.82.442.366.624.793.624 1.243 0 .943-.59 1.687-2.038 1.921l-3.148.432-.78.091.078.535.165-.029c.434-.069.85-.102 1.257-.102.269 0 .72.041 1.344.131a.88.88 0 0 1 .104.02c.893.24 1.517.543 1.873.855.425.366.598.78.598 1.201 0 .843-.494 1.528-1.682 1.843-.72.191-1.526.35-2.419.477l-1.266.167v.327l2.081-.376a.82.82 0 0 1 .165-.016c.173 0 .581.04 1.214.13l.078.014c.919.214 1.543.514 1.908.838.416.362.59.78.59 1.225 0 .556-.277 1.123-.962 1.61-.286.222-.676.403-1.179.515-.39.086-1.179.176-2.376.262l-1.457.111-.147 1.798.902-.181c1.162-.24 2.02-.354 2.584-.354.763 0 1.535.101 2.315.302.832.214 1.517.53 2.072.935.702.52 1.049 1.21 1.049 2.067 0 1.095-.763 1.902-2.636 1.902-.035 0-.069-.002-.095-.006l-4.136-.455-2.835-.208c-1.821 0-3.451.088-4.882.267-1.197.149-2.272.404-3.234.77-.225.981-.668 1.582-1.249 1.868l2.905 1.561.902.472 1.951-.325c.043-.008.095-.012.139-.012.529 0 .832.207.988.392a.98.98 0 0 1 .243.658c0 .057 0 .114-.017.17-.052.287-.321.769-.893 1.372-.295.31-.477.695-.564 1.151l-.338 1.687c-.147.706-.434 1.193-.78 1.497-.312.297-.728.472-1.257.472-.564 0-1.171-.201-1.804-.664-1.075-.816-2.081-1.845-3.026-3.09-.954-1.247-1.613-2.412-2.003-3.489-.173-.382-.321-.764-.451-1.145a.98.98 0 0 1-.043-.275 1.14 1.14 0 0 1 .347-.846c.208-.206.538-.382 1.049-.386l-.243-.373c-.39-.676-.728-1.441-1.015-2.293-.303-.915-.442-1.588-.442-2.01 0-.235.052-.531.165-.884l.026-.068c.338-.773.546-1.508.642-2.208.095-.74.147-1.615.147-2.627V35.52l-.017-.666-1.509.956-2.22 1.17c-.789.356-1.37.503-1.726.503-.234 0-.425-.053-.581-.146l-.13 6.345c0 .755-.217 1.62-.659 2.587-.329.698-.711 1.158-1.093 1.431.061-.009.139-.013.208-.013.312 0 .702.098 1.136.343 1.327.644 2.35 1.587 3.078 2.82.26.425.65 1.292 1.153 2.606.607 1.36 1.309 2.488 2.124 3.376.798.871 1.83 1.581 3.104 2.141.832.38 1.856.669 3.078.878 1.24.215 2.411.323 3.503.323 1.119 0 2.142-.095 3.087-.287.399-.081.806-.209 1.015-.28.017-.123.026-.297.026-.453a8.61 8.61 0 0 0-.165-1.607c-.113-.606-.243-1.137-.399-1.591-.199-.608-.286-1.067-.286-1.371 0-.399.13-.684.295-.884.217-.246.512-.409.936-.409.338 0 .746.12 1.197.428.347.242.555.46.668.609l-.017-.029c2.168 2.817 3.815 4.499 5.047 4.959 1.162.453 1.647 1.185 1.647 2.026 0 .509-.139.952-.39 1.334l-.702.962c-.494.643-1.413 1.184-2.792 1.53-1.197.3-2.549.453-4.049.453-2.237 0-4.63-.238-7.162-.715-2.575-.486-4.474-1.034-5.697-1.625-2.749-1.328-4.812-2.944-6.226-4.825-1.041-1.371-2.402-3.923-4.058-7.663l-.26-.67c-.173-.442-.243-.786-.243-1.022 0-.442.156-.758.373-.978l.069-.064a1.35 1.35 0 0 1-.243.022c-.676 0-1.353-.41-1.821-1.474l-.815-1.824c-.095-.235-.217-.756-.356-1.569v-.035c-.052-.369.069-1.242.416-2.606.277-1.101.425-1.913.425-2.436v-1.583l-.052-1.428-1.543.827-2.341 1.119c-1.093 4.427-2.411 8.391-3.963 11.894-1.977 4.453-4.119 7.634-6.382 9.565-.616.525-1.093.893-1.448 1.112-.529.335-.928.437-1.127.437-.243 0-.477-.103-.642-.283s-.243-.421-.217-.663a13.06 13.06 0 0 1 .191-1.371c.017-.097.061-.191.113-.276l.893-1.614c2.402-4.409 4.335-9.341 5.801-14.793s2.194-10.853 2.194-16.221c0-1.728-.321-3.029-1.067-3.875-.009-.01-.017-.02-.026-.029-.468-.591-.676-1.166-.676-1.699 0-.447.147-.795.408-1.063.286-.308.772-.535 1.5-.535.329 0 .789.064 1.361.208 1.413.353 2.627.886 3.624 1.582.165.109.286.202.399.218l11.714-1.478zM83.609 63.066c-.017-.036-.043-.077-.069-.125-.052-.121-.156-.409-.286-.866-.156-.544-.26-1.099-.303-1.666l-.069-.891c0-1.432.477-2.698 1.422-3.783.425-.506 1.24-1.309 2.454-2.401.798-.723 1.335-1.309 1.587-1.779l.017-.023c.494-.866.928-1.415 1.24-1.675s.616-.342.85-.342c.382 0 .728.162.962.594.113.215.208.586.208 1.125 0 .552-.043.978-.121 1.279-.017 1.85-.338 3.607-.971 5.272-.65 1.728-1.379 3.011-2.142 3.865-.78.865-1.405 1.446-1.873 1.757-.616.408-1.136.572-1.543.572-.512 0-1.006-.25-1.361-.913zm31.224-13.39c-.408-.421-.52-.807-.52-1.061 0-.372.156-.723.572-.984.329-.204 1.032-.369 2.124-.369h1.127a11.03 11.03 0 0 0 1.101-.057c.026-.003.052-.004.078-.004 1.058 0 1.916.082 2.575.236.746.173 1.465.571 2.159 1.214.65.602 1.145 1.241 1.491 1.912.382.744.555 1.379.555 1.891 0 .768-.217 1.331-.555 1.715-.373.422-.91.675-1.656.675-.182 0-.46-.045-.815-.166-.026-.006-.043-.014-.061-.022-1.214-.502-2.515-1.171-3.893-2.008l-.043-.026-3.243-2.165c-.503-.298-.824-.569-.997-.779zm-8.714-8.607v1.654l3.139-.51v-1.654l-3.139.51zm-.234-5.571l.104.967c.043.371.069.708.095 1.007.581-.053 1.283-.156 2.107-.305l1.067-.219v-.988c-.052.002-.113.002-.173.002-.685 0-1.647-.124-2.861-.386l-.338-.076zm-2.168-14.014c-1.37.023-2.593.064-3.668.127.347.224.668.46.962.708.564.492.78 1.015.78 1.505 0 .509-.347 1.182-1.301 1.818-.009.007-.017.015-.035.022a25.93 25.93 0 0 0-1.015.637c-.798.996-1.673 2.011-2.636 3.05a60.84 60.84 0 0 1-2.983 2.985l.043.047c.338.307.607.641.806.999.208.356.364.824.468 1.408l.026.159c.156-.244.347-.48.572-.705 1.353-1.398 2.593-2.815 3.703-4.244 1.457-1.933 3-4.312 4.613-7.138-.017-.081-.043-.234-.087-.36-.156-.486-.225-.829-.251-1.021zm2.35 8.824l-1.344 1.536c.173.217.329.44.46.669.52-.016 1.127-.053 1.821-.111.711-.058 1.413-.128 2.116-.208-.009-.349-.017-.704-.043-1.066-.009-.203-.026-.376-.069-.508-.399.005-.867-.023-1.396-.087a32.09 32.09 0 0 1-1.543-.225zm-12.339-7.84l-3.529.512-1.621.213c-.104 1.151-.303 2.692-.59 4.627l-.598 3.793c1.197-1.109 2.376-2.492 3.538-4.146 1.327-1.875 2.263-3.539 2.801-5zm16.31-.892c.095.093.199.186.295.278l.321.302c.572.518.824 1.088.824 1.67 0 .616-.303 1.269-1.041 1.884a.68.68 0 0 1-.113.078c-.451.271-.832.525-.893.564a37.39 37.39 0 0 0-.962 1.01 24.21 24.21 0 0 0 1.353-.243c.026-.005.052-.009.069-.011.225-.029.52-.091.876-.185.156-.334.303-.82.468-1.454.217-.864.338-1.554.338-2.069 0-.067-.009-.153-.009-.19-.251-.615-.356-1.084-.356-1.394a2.95 2.95 0 0 1 .017-.285l-.832-.02-.356.065z"/><path id="C" d="M146.941 16.241c1.396-.051 3.148-.306 5.255-.756l3.616-.783.104-.019 7.769-1.214 7.691-1.454.052-.01c.39-.064.936-.336 1.665-.756.72-.419 1.249-.685 1.587-.811.321-.125.572-.156.737-.156 1.015 0 2.887.754 5.523 2.463 1.812 1.178 2.965 2.185 3.512 2.962.399.571.546 1.096.546 1.54 0 .495-.13 1.059-.442 1.678 0 .01-.009.021-.009.03l-.91 1.643a9.84 9.84 0 0 0-.286 1.78l-.052 2.665v17.237l.173 4.603.434 8.006c0 2.457-.286 4.613-.85 6.47-.962 3.151-2.601 4.514-4.474 4.514-.572 0-1.032-.184-1.396-.495-.321-.276-.581-.67-.72-1.221-.356-1.444-1.205-2.914-2.497-4.43l-4.431-4.553a1.29 1.29 0 0 1-.312-1.21c.104-.431.425-.778.85-.918.442-.148.746-.188.893-.188.598 0 1.413.106 2.445.336l2.688.596c.104-.414.147-.9.147-1.458V23.642c0-2.28-.182-3.939-.624-4.966-.555-1.28-1.587-1.895-3.07-1.895-1.795 0-3.772.197-5.922.588l-3.104.558c1.162.884 1.673 1.927 1.673 3.036 0 .388-.078.996-.277 1.82-.13.571-.208 1.039-.208 1.408v.527l.928-.383c1.067-.454 1.925-.653 2.584-.653 1.093 0 2.202.219 3.338.669 1.604.634 2.289 1.679 2.289 2.946 0 .551-.225 1.127-.867 1.621-.659.502-2.055 1.004-4.275 1.373l-4.006.535-.035 5.871 2.515-.91c1.153-.408 2.09-.592 2.809-.592s1.673.127 2.853.399c.902.21 1.517.518 1.882.832.503.434.702.941.702 1.471 0 .605-.234 1.216-.85 1.766-.754.682-2.359 1.36-4.873 1.882l-.061.01-4.977.797.043 3.644-.494 9.966c-.295 2.407-.763 4.082-1.318 5.046-.633 1.095-1.457 1.517-2.289 1.517-.616 0-1.214-.26-1.7-.93-.373-.501-.702-1.363-.919-2.616-.303-1.733-.451-3.178-.451-4.333V43.804l-1.994.397c-.52.149-1.093.356-1.708.617l-1.639.699c-.624.27-1.162.379-1.578.379-.555 0-1.63-.356-3.156-1.243l-.789-.496a41.95 41.95 0 0 1-1.283 4.642c-1.344 3.865-3.295 7.478-5.853 10.829-.659.881-1.257 1.571-1.786 2.078-.763.734-1.422 1.047-1.873 1.11-.581.083-1.145-.235-1.379-.775l-.182-.427c-.069-.161-.104-.336-.104-.512 0-.563.217-1.421.728-2.554.26-.551.529-1.104.815-1.627 1.387-2.733 2.645-6.468 3.789-11.2 1.153-4.728 1.734-8.615 1.734-11.662V22.912c0-1.37-.277-2.672-.832-3.903l-2.272-3.778a1.28 1.28 0 0 1-.182-.664c0-.39.121-.716.338-.99.26-.331.763-.675 1.63-.675 1.006 0 2.341.397 3.971 1.285 1.266.688 2.263 1.378 3 2.054zm1.197 15.808c-.078 1.891-.199 3.6-.356 5.127-.113 1.039-.234 2.045-.382 3.021a7.05 7.05 0 0 1 .364-.009h.668a26.09 26.09 0 0 0 4.7-.435c1.361-.249 2.809-.573 4.362-.974l.043-6.521-4.604 1.117a1.26 1.26 0 0 1-.295.034c-.616 0-1.717-.256-3.286-.843-.477-.177-.876-.35-1.214-.518zm7.431-12.694l-6.867 1.213v.029c0 .434-.069 1.26-.225 2.476-.13 1.055-.199 1.752-.199 2.092l-.035 3.3a8.7 8.7 0 0 1 1.353-.094c1.301 0 2.705-.146 4.197-.434a43.2 43.2 0 0 0 3.694-.882v-1.404c0-2.108-.173-3.648-.616-4.61-.303-.684-.746-1.248-1.301-1.688z"/><path id="D" d="M205.358 36.883l-3.165 2.806c-1.5 1.242-2.714 2.104-3.642 2.6-.832.447-1.509.622-1.994.622a1.27 1.27 0 0 1-.78-.26l-.251-.182a1.32 1.32 0 0 1-.52-1.041c0-.113.035-.46.321-.964.408-.74 1.63-2.632 3.685-5.673 3.096-4.593 5.419-8.238 6.954-10.944 2.35-4.095 3.598-6.965 3.598-8.671 0-.233-.061-.49-.165-.778-.46-1.275-.624-1.983-.624-2.085 0-.641.251-1.097.642-1.418.303-.245.728-.431 1.327-.431 1.526 0 3.191.726 4.934 2.32 1.778 1.628 2.584 3.286 2.584 4.889 0 .674-.277 1.412-.954 2.154a36.85 36.85 0 0 1-1.093 1.159l-6.937 10.861c.434.399.85.838 1.249 1.316 1.075 1.295 1.517 2.398 1.517 3.207 0 .336-.069.788-.234 1.348-.078.242-.13.42-.13.535l.061 16.207c0 3.202-.217 5.762-.642 7.68-.303 1.384-.737 2.334-1.205 2.888-.538.636-1.162.904-1.83.904-.425 0-.876-.137-1.335-.496-.529-.418-1.153-1.291-1.769-2.684-.815-1.836-1.179-3.207-1.179-4.09v-.108l.191-2.193.009-.1c.477-2.967.832-6.034 1.049-9.202.225-3.178.329-6.457.329-9.837v-.343zm24.053-21.382l-.052-1.36c0-.86.104-1.555.277-2.086.356-1.048 1.058-1.529 2.064-1.529.486 0 1.084.16 1.76.564.711.424 1.587 1.157 2.593 2.217 1.83 1.935 2.61 3.508 2.61 4.55 0 .708-.312 1.422-1.101 2.052-.208.17-.607.443-1.179.816-1.457 1.265-2.957 2.666-4.5 4.205-.988.988-1.856 1.889-2.601 2.704 1.569-.043 3.52-.26 5.853-.643 1.569-.268 3.356-.628 5.367-1.08.347-.274.72-.55 1.101-.832.581-.408 1.006-.664 1.275-.786.329-.15.59-.182.754-.182.364 0 .85.116 1.413.452.78.46 1.908 1.44 3.347 2.973 1.431 1.527 2.35 2.715 2.783 3.539.295.566.399 1.041.399 1.401 0 .677-.329 1.483-1.214 2.295-.277.263-.494.458-.616.61l-3.798 21.281c-.347 1.776-.806 3.291-1.37 4.557-1.188 2.594-2.714 3.682-4.171 3.682-1.301 0-2.263-.673-2.731-2.195-.303-.97-.46-2.032-.46-3.187 0-.033 0-.067.009-.1l-7.604.091c-1.422.031-2.679.101-3.46.153-.095.656-.269 1.228-.52 1.717-.598 1.199-1.431 1.633-2.228 1.633-.59 0-1.197-.203-1.778-.673-.59-.474-1.197-1.284-1.769-2.47-.884-1.833-1.283-3.318-1.283-4.431 0-1.833-.121-4.005-.364-6.515-.572-5.994-.858-9.751-.858-11.27 0-.915-.26-2-.746-3.261l-1.994-4.238c-.078-.17-.121-.354-.121-.541 0-.605.234-1.034.572-1.337.295-.257.702-.451 1.275-.451.434 0 1.11.15 2.02.525.043.016.078.034.113.053a38.81 38.81 0 0 0 1.37.686c1.812-1.384 3.616-3.371 5.419-5.94 1.717-2.475 3.096-5.023 4.145-7.645zm10.431 27.386l-.061.056c-.763.647-2.402 1.285-4.951 1.772-2.887.552-6.139.862-9.764.924l.754 9.181 12.035-.463c.364-1.499.72-3.362 1.084-5.591l.902-5.88zm1.613-11.716c-.087-.019-.356-.075-.564-.075-1.439 0-3.46.281-6.07.825-2.844.594-4.882.88-6.113.88-1.353 0-2.671-.399-3.928-1.223a10.33 10.33 0 0 0-.555.372 16.37 16.37 0 0 0-.78.627c.052 1.42.286 3.256.694 5.506a76.62 76.62 0 0 1 .451 2.54c1.023-.16 2.246-.379 3.659-.654 1.882-.365 3.113-.666 3.668-.958 1.136-.678 2.341-1.015 3.616-1.015.91 0 1.89.183 2.939.565.971.352 1.578.854 1.899 1.439l.685-3.314c.364-1.745.546-3.25.546-4.515 0-.422-.026-.76-.147-1z"/></defs></svg>