<svg width="960" height="238" viewBox="0 0 960 238" fill="none" xmlns="http://www.w3.org/2000/svg">
<path fill-rule="evenodd" clip-rule="evenodd" d="M272.029 17.3872C264.155 13.9369 255.802 18.2484 253.72 24.6721L242.633 58.8732C241.606 62.04 242.989 66.0776 247.267 67.9523C251.792 69.9354 256.834 68.2122 259.062 64.8551L281.656 30.8125C283.966 27.3328 282.979 22.1856 277.893 19.9568L272.029 17.3872ZM278.556 2.5691C262.453 -4.48728 243.507 3.56785 238.279 19.6927L227.192 53.8938C223.465 65.3913 229.258 77.739 240.739 82.7704C252.221 87.8018 265.842 83.9613 272.594 73.7891L295.188 39.7466C303.327 27.4839 298.261 11.204 284.42 5.13874L278.556 2.5691Z" fill="#584B3E"/>
<path d="M142.806 32.6687C169.894 1.25606 215.624 -6.26519 251.368 14.8133L271.749 26.8318C294.404 40.1913 308.308 64.508 308.316 90.7833C308.32 101.663 304.976 112.28 298.736 121.198L236.399 210.291C219.161 234.929 187.062 244.241 159.29 232.66C128.782 219.939 100.834 201.804 76.799 179.133L70.7008 173.38C67.5582 170.416 65.6136 166.404 65.2353 162.103C63.2205 139.196 70.559 116.448 85.5846 99.0241L142.806 32.6687Z" fill="#ECECDE"/>
<path fill-rule="evenodd" clip-rule="evenodd" d="M243.625 27.8747C214.231 10.541 176.624 16.7217 154.34 42.5631L97.1186 108.918C84.7686 123.24 78.7338 141.942 80.3905 160.777C80.4438 161.383 80.7175 161.944 81.1541 162.356L70.8177 173.257L81.1541 162.356L87.2524 168.108C109.952 189.52 136.347 206.647 165.158 218.661C186.316 227.483 210.779 220.394 223.923 201.608L286.26 112.514C290.716 106.146 293.106 98.5616 293.103 90.7883C293.096 69.8695 282.026 50.5199 264.006 39.8932L243.625 27.8747ZM251.368 14.8133C215.624 -6.26519 169.894 1.25607 142.806 32.6687L85.5846 99.0241C70.559 116.448 63.2205 139.196 65.2353 162.103C65.6136 166.404 67.5582 170.416 70.7008 173.38L76.799 179.133C100.834 201.804 128.782 219.939 159.29 232.66C187.062 244.241 219.161 234.929 236.399 210.291L298.736 121.198C304.976 112.28 308.32 101.663 308.316 90.7833C308.308 64.508 294.404 40.1913 271.749 26.8318L251.368 14.8133Z" fill="#584B3E"/>
<path d="M116.413 54.0201C130.061 38.5123 153.102 34.7993 171.111 45.2052L229.13 76.9C240.545 83.4953 247.55 95.4999 247.555 108.471C247.556 113.842 245.871 119.084 242.728 123.486L211.32 167.47C202.634 179.633 186.462 184.23 172.469 178.513C157.098 172.233 95.2656 137.518 83.1559 126.326L80.0833 123.486C78.5 122.023 77.5202 120.042 77.3296 117.919C76.3145 106.61 80.0119 95.3801 87.5824 86.7783L116.413 54.0201Z" fill="#ECECDE"/>
<path fill-rule="evenodd" clip-rule="evenodd" d="M164.887 56.2225L164.756 56.1465C151.937 48.7399 135.56 51.4315 125.941 62.3617L97.1102 95.1199C92.1477 100.759 89.593 107.965 89.8617 115.285L91.7729 117.051C93.8448 118.966 99.0408 122.671 106.879 127.66C114.407 132.452 123.578 137.935 132.921 143.307C151.905 154.222 170.496 164.042 177.275 166.812C185.898 170.335 195.773 167.445 200.993 160.135L232.401 116.151C234.025 113.877 234.878 111.198 234.877 108.476C234.874 100.136 230.394 92.2982 222.893 87.9099L164.887 56.2225ZM229.13 76.9C240.545 83.4953 247.55 95.4999 247.555 108.471C247.556 113.842 245.871 119.084 242.728 123.486L211.32 167.47C202.634 179.633 186.462 184.23 172.469 178.513C157.098 172.233 95.2656 137.518 83.1559 126.326L80.0833 123.486C78.5 122.023 77.5202 120.042 77.3296 117.919C76.3145 106.61 80.0119 95.3801 87.5824 86.7783L116.413 54.0201C130.061 38.5123 153.102 34.7993 171.111 45.2052L229.13 76.9Z" fill="#584B3E"/>
<path d="M124.787 118.969C118.938 117.976 113.37 121.923 112.351 127.785C111.331 133.647 115.247 139.205 121.096 140.198L152.397 145.515L145.063 169.655C143.309 175.429 146.545 181.461 152.291 183.127C158.036 184.794 164.116 181.465 165.87 175.691L176.623 140.3C178.377 134.526 175.141 128.495 169.396 126.828C169.383 126.824 169.37 126.82 169.357 126.817C168.623 126.511 167.844 126.283 167.026 126.144L124.787 118.969Z" fill="#ECECDE"/>
<path fill-rule="evenodd" clip-rule="evenodd" d="M169.396 126.828C175.141 128.495 178.377 134.526 176.623 140.3L165.87 175.692C164.116 181.465 158.036 184.794 152.291 183.127C146.545 181.461 143.309 175.429 145.063 169.656L152.398 145.515L121.096 140.198C115.247 139.205 111.332 133.647 112.351 127.785C113.37 121.923 118.938 117.976 124.787 118.97L167.026 126.144C167.844 126.283 168.623 126.511 169.357 126.817L169.396 126.828ZM173.552 114.874C172.145 114.34 170.674 113.937 169.155 113.679L126.916 106.504C114.116 104.33 102.062 112.959 99.8596 125.624C97.6521 138.318 106.137 150.484 118.967 152.664L136.095 155.573L132.93 165.989C129.168 178.373 136.103 191.6 148.75 195.269C161.287 198.906 174.272 191.641 178.003 179.359L188.756 143.967C192.457 131.784 185.808 118.787 173.552 114.874Z" fill="#584B3E"/>
<path d="M71.8299 135.359C67.8772 132.322 65.8022 127.238 66.9153 122.083L72.7282 95.1652C74.087 88.8732 80.3786 84.8448 86.7809 86.1676C95.0604 87.8782 100.348 95.8611 98.5906 103.998L97.8696 107.337L116.92 111.068C121.324 111.93 124.155 116.129 123.242 120.445L119.067 140.201C118.155 144.517 113.845 147.317 109.441 146.455L77.777 140.253C74.9649 139.703 72.7943 137.792 71.8299 135.359Z" fill="#ECECDE"/>
<path fill-rule="evenodd" clip-rule="evenodd" d="M59.703 144.879C53.1811 138.324 49.9238 128.7 52.0426 118.889L57.8556 91.9704M59.703 144.879C63.0215 150.054 68.388 153.878 74.8454 155.143L106.509 161.344C118.874 163.766 131.282 155.967 133.953 143.331L138.128 123.575C140.835 110.769 132.369 98.6303 119.851 96.1787L113.56 94.9467C111.22 83.3763 102.096 73.8362 89.8665 71.3096C75.4649 68.3341 61.0126 77.3514 57.8556 91.9704M71.8296 135.359C67.8769 132.322 65.8019 127.238 66.915 122.083L72.7279 95.1653C74.0867 88.8733 80.3783 84.845 86.7806 86.1677C94.4981 87.7622 99.616 94.8065 98.852 102.345C98.7964 102.894 98.7096 103.446 98.5903 103.998L97.8693 107.337L116.919 111.068C121.323 111.93 124.154 116.129 123.242 120.445L119.067 140.201C118.155 144.517 113.845 147.317 109.44 146.455L77.7768 140.253C74.9646 139.703 72.794 137.792 71.8296 135.359Z" fill="#584B3E"/>
<path d="M61.3852 161.734C57.9623 166.786 59.3874 173.528 64.5682 176.793C69.749 180.058 76.7238 178.61 80.1467 173.558L95.325 151.158L107.772 158.618C114.376 162.575 123.094 160.562 127.245 154.121C129.627 150.424 128.486 145.586 124.696 143.315L99.6873 128.329C98.7841 127.788 97.8306 127.388 96.8544 127.125C91.8068 124.612 85.4765 126.181 82.2676 130.917L61.3852 161.734Z" fill="#ECECDE"/>
<path fill-rule="evenodd" clip-rule="evenodd" d="M61.3852 161.734L50.8813 154.654L71.7637 123.836L82.2676 130.917L61.3852 161.734ZM127.245 154.121L137.91 160.958C130.032 173.182 113.686 176.913 101.243 169.456L99.0986 168.171L90.6506 180.638C83.376 191.374 68.7431 194.381 57.7961 187.482C46.5935 180.422 43.4343 165.644 50.8813 154.654L61.3852 161.734C57.9622 166.786 59.3873 173.528 64.5681 176.793C69.749 180.058 76.7237 178.61 80.1467 173.558L95.325 151.158L107.772 158.617C114.376 162.575 123.094 160.562 127.245 154.121ZM99.6873 128.329C98.784 127.788 97.8305 127.388 96.8544 127.124C91.8068 124.612 85.4765 126.181 82.2676 130.917L71.7637 123.836C78.3576 114.105 90.9511 110.756 101.376 115.28C103.041 115.826 104.665 116.561 106.217 117.49L131.225 132.476C141.107 138.398 144.183 151.223 137.91 160.958L127.245 154.121C129.627 150.424 128.486 145.586 124.696 143.315L99.6873 128.329Z" fill="#584B3E"/>
<path d="M52.3645 213.622C51.8866 213.488 51.4112 213.326 50.9402 213.137L22.2249 201.581C16.4735 199.267 13.7043 192.671 16.0397 186.849C19.4828 178.267 29.1475 174.075 37.6266 177.487L40.4675 178.63L50.332 162.962C52.8351 158.986 58.055 157.777 61.9911 160.261L80.2636 171.791C84.1997 174.275 85.3614 179.511 82.8583 183.487L68.8916 205.671C68.3028 207.023 67.5271 208.238 66.6079 209.298L65.1417 211.627C62.6387 215.602 57.4187 216.812 53.4826 214.328L52.3645 213.622Z" fill="#ECECDE"/>
<path fill-rule="evenodd" clip-rule="evenodd" d="M45.7789 227.416C45.6014 227.348 45.4244 227.279 45.2478 227.208L16.5324 215.653C2.82536 210.137 -3.46288 194.618 1.91482 181.213C7.13595 168.197 20.0674 160.328 33.4913 161.177L37.4481 154.893C44.3494 143.931 58.944 140.382 70.125 147.438L88.3975 158.968L80.2635 171.791L61.991 160.261C58.0549 157.777 52.835 158.986 50.3319 162.962L40.4674 178.63L37.6264 177.487C29.1474 174.075 19.4826 178.266 16.0396 186.849C13.7042 192.671 16.4733 199.267 22.2247 201.581L50.9401 213.137C51.4111 213.326 51.8864 213.488 52.3644 213.622L53.4825 214.328C57.4186 216.812 62.6385 215.602 65.1416 211.626L66.6078 209.298C67.527 208.238 68.3027 207.022 68.8915 205.67L82.8582 183.487L95.742 191.556L82.2779 212.941C81.3563 214.818 80.2496 216.567 78.9863 218.17L78.0254 219.696C71.2123 230.517 56.9013 234.114 45.7789 227.416ZM80.2635 171.791C84.1996 174.275 85.3612 179.511 82.8582 183.487L80.2635 171.791ZM95.742 191.556L82.8582 183.487L95.742 191.556ZM95.742 191.556C102.623 180.627 99.5431 166.002 88.3975 158.968L95.742 191.556Z" fill="#584B3E"/>
<rect x="87.1843" y="158.167" width="3.40415" height="15.1776" transform="rotate(33.0589 87.1843 158.167)" fill="#584B3E"/>
<path fill-rule="evenodd" clip-rule="evenodd" d="M639.604 115.535C639.098 115.749 638.609 116.001 638.129 116.292C638.129 116.292 632.188 119.897 623.151 125.827L575.137 125.693C568.245 125.679 566.864 128.076 566.846 135.061C566.838 142.048 575.619 147.731 582.511 147.746L600.055 147.803C588.418 156.626 576.702 166.291 567.236 175.754C562.604 180.381 565.75 184.687 570.313 189.383C574.875 194.079 581.551 193.382 586.966 189.509C590.58 186.625 593.997 184.164 597.412 181.705L597.413 181.704C601.005 179.118 604.595 176.532 608.409 173.458V204.893C608.497 208.739 610.346 212.322 613.417 214.592C616.479 216.861 620.037 218.16 627.249 216.477C627.249 216.477 641.045 211.434 648.565 209.202C656.92 206.434 660.127 204.893 660.127 204.893C666.321 202.189 670.435 192.646 661.263 186.952C654.307 182.634 653.759 182.773 651.208 183.418C650.99 183.473 650.758 183.532 650.505 183.592C650.505 183.592 645.093 184.355 641.708 185.424L632.434 188.175L632.822 158.251C632.796 157.306 632.674 156.389 632.456 155.51C635.023 153.691 636.912 152.768 638.359 152.06C639.401 151.551 640.213 151.154 640.884 150.616L645.093 147.912C645.824 149.259 646.58 150.714 647.381 152.256C657.536 171.801 674.954 205.326 740.954 210.819C747.55 212.225 754.031 207.935 755.418 201.245C756.805 194.554 752.574 187.981 745.979 186.575C743.931 186.138 741.276 185.648 738.359 185.11L738.357 185.109C730.131 183.591 719.819 181.689 715.15 179.508C725.875 165.497 734.881 155.585 743.77 146.676C744.381 146.063 744.922 145.399 745.376 144.699C747.801 142.395 749.327 139.119 749.336 135.482C749.345 128.497 743.77 126.076 736.879 126.062L663.917 125.913C662.983 118.296 656.562 112.393 648.807 112.393C645.344 112.393 642.16 113.564 639.604 115.535ZM677.228 147.973C681.337 153.592 686.667 159.725 693.42 165.497C694.161 164.549 695.051 163.697 696.08 162.977C698.397 160.391 700.706 158.467 702.843 156.685C706.001 154.053 708.785 151.732 710.669 148.051L677.228 147.973ZM613.853 46.9565C610.904 47.1733 601.995 47.0795 599.884 46.6981C597.912 46.3424 596.473 45.8408 595.609 44.8861C594.531 43.6962 594.576 42.085 594.612 40.8267L594.615 40.723C594.676 38.7933 594.615 38.3823 594.615 38.3823C594.615 32.1077 591.335 31.5235 586.194 30.6076C585.883 30.5521 585.564 30.4954 585.24 30.4362C578.344 29.178 573.829 31.6272 572.015 37.1917C572.015 37.1917 566.92 51.3938 576.978 62.507C581.551 68.2653 599.18 68.8466 613.853 68.1777V75.757C594.615 75.757 580.392 76.7073 574.006 83.5973C562.203 96.3473 568.306 115.3 568.306 115.3C569.204 120.805 576.469 120.788 582.635 120.774C582.944 120.773 583.25 120.772 583.552 120.772C587.965 120.772 592.776 118.329 592.776 112.114C592.776 112.114 591.654 102.014 595.17 99.5917C598.686 97.1699 602.398 97.0826 613.853 97.0826V105.587C613.853 112.849 619.663 115.481 626.825 115.481C633.978 115.481 639.797 112.849 639.797 105.587V34.263C639.797 27.0005 633.978 24.3682 626.825 24.3682C619.663 24.3682 613.853 27.0005 613.853 34.263V46.9565ZM685.101 44.9851L652.109 44.9276C644.877 44.9125 644.578 50.8594 644.56 58.2006C644.543 65.541 646.472 71.5134 653.713 71.5284L685.101 71.586V86.7222L664.337 86.6788C657.645 86.6788 657.631 92.5556 657.614 99.8496L657.614 99.9519C657.596 107.292 660.251 113.265 667.492 113.28H727.478C734.719 113.295 737.4 107.347 737.418 100.007C737.426 92.6655 734.771 86.6939 727.531 86.678L710.717 86.7833V71.6479L743.538 71.5559C750.77 71.5709 753.214 65.6241 753.231 58.2829C753.248 50.9425 750.831 44.97 743.59 44.955L710.717 45.0462V29.816C710.717 21.7466 704.262 18.4586 696.306 18.4586C688.35 18.4586 685.101 21.7466 685.101 29.816V44.9851ZM794.879 114.944L794.879 206.367C794.879 213.418 800.524 219.141 807.476 219.141C814.42 219.141 820.065 216.681 820.065 209.631L822.056 82.3311L827.532 65.4535C834.494 55.0138 822.091 47.9706 812.815 47.9706C805.025 46.7752 799.573 58.448 794.394 69.533C791.881 74.9139 789.432 80.1562 786.811 83.7211L770.776 108.173C766.536 115.324 762.208 122.947 767.568 127.051C771.023 129.697 778.584 131.946 783.395 127.051L794.879 114.944ZM898.713 38.4245L883.167 38.3706V31.9716C883.167 25.4329 881.14 23.3881 874.693 23.3881C868.246 23.3881 859.804 25.4329 859.804 31.9716V38.321L851.01 38.2821C845.453 38.2705 840.926 39.5801 840.908 45.2243C840.908 45.3881 840.907 45.5537 840.907 45.7209V45.7318C840.892 51.3279 840.872 58.7353 847.768 58.7353L859.804 58.7742V64.5697C859.804 66.4792 860.249 68.2842 861.043 69.883L837.687 69.8264C830.446 69.8114 827.773 72.495 827.756 79.8363C827.739 87.1766 830.394 93.1491 837.634 93.1641L843.101 93.188C842.719 93.2647 842.334 93.3252 841.949 93.3856L841.948 93.3857C839.904 93.7064 837.872 94.0251 836.523 96.7564L827.532 112.379C823.694 116.353 821.265 125.071 828.505 127.773C831.321 128.825 834.919 129.405 838.127 126.142L844.541 119.616C840.312 127.669 843.279 131.608 845.186 134.138C846.369 135.709 847.144 136.737 845.535 137.869C844.854 138.349 844.012 138.811 843.08 139.324L843.079 139.324C838.265 141.971 831.039 145.944 831.039 160.405C831.039 168.361 834.247 175.089 834.247 175.089V207.762C834.247 215.631 839.069 218.133 846.825 218.133C854.58 218.133 859.156 215.631 859.156 207.762V184.805H881.423V203.515C881.423 210.122 887.736 212.615 894.252 212.615C900.769 212.615 901.814 210.122 901.814 203.515V184.805H928.642V209.772C928.642 216.188 933.771 218.133 940.096 218.133C946.421 218.133 954.766 216.188 954.766 209.772V187.032C954.766 185.719 954.557 181.194 954.155 180.016C960 171.826 960 170.194 960 160.405C960 152.247 955.189 144.089 945.839 139.881C951.982 137.563 953.926 128.203 953.926 122.879C953.926 103.3 935.946 99.2463 926.775 99.2463H876.184C871.175 99.2463 869.372 99.481 867.73 99.6946C866.358 99.873 865.1 100.037 862.18 100.037C859.274 99.2463 856.866 98.3708 854.712 96.7564C852.559 95.1421 850.577 93.6897 848.178 93.1986L947.194 93.4305C954.434 93.4464 957.116 87.4987 957.133 80.1583C957.142 72.8171 954.487 70.1078 947.255 70.0927L920.758 70.0299C921.604 68.3957 922.075 66.5384 922.075 64.5697V58.9273L931.916 58.968C942.073 58.968 942.044 51.9386 942.02 46.3997C942.019 46.095 942.018 45.7947 942.018 45.5003C942.027 39.8562 937.517 38.5272 931.96 38.5157L922.075 38.4741V31.9716C922.075 25.4329 913.634 23.3881 907.187 23.3881C900.74 23.3881 898.713 25.4329 898.713 31.9716V38.4245ZM884.252 152.35H867.672C862.181 152.35 857.37 154.694 857.37 159.589C857.37 164.484 858.973 166.832 863.784 166.832H883.694C883.613 166.574 883.431 166.298 883.203 165.952C882.519 164.917 881.423 163.259 881.423 159.589C881.423 158.162 882.993 154.941 883.871 153.139C883.971 152.935 884.061 152.749 884.14 152.586C884.181 152.501 884.219 152.422 884.252 152.35ZM901.982 152.35C902.14 152.477 902.296 152.6 902.449 152.721C904.13 154.043 905.478 155.103 905.478 159.589C905.478 163.175 904.07 164.84 903.19 165.88C902.869 166.26 902.618 166.556 902.532 166.832H925.434C927.598 166.832 932.739 165.3 932.739 159.589C932.739 153.879 929.982 152.35 923.797 152.35H901.982ZM887.233 120.482H876.613C870.628 120.482 864.464 120.482 863.784 127.563C863.272 132.897 865.388 133.712 875.009 133.712H888.053C887.72 133.174 887.214 132.873 886.678 132.555C885.532 131.872 884.252 131.11 884.252 127.773C884.252 124.791 885.561 122.964 886.473 121.691C886.808 121.223 887.09 120.83 887.233 120.482ZM905.407 120.482C905.427 120.691 905.679 120.964 906.037 121.351C906.989 122.381 908.685 124.215 908.685 127.773C908.685 132.221 907.268 132.58 906.037 132.892C905.462 133.038 904.927 133.174 904.596 133.712H911.892C913.035 133.712 914.242 133.755 915.468 133.797C922.228 134.034 929.532 134.29 929.532 127.563C929.532 120.181 916.655 120.403 912.647 120.472C912.34 120.477 912.085 120.482 911.892 120.482H905.407ZM883.167 58.8237V64.5697C883.167 66.4968 882.713 68.3178 881.902 69.9273L900.004 69.9857C899.184 68.3621 898.713 66.5207 898.713 64.5697V58.8778L883.167 58.8237ZM452.21 61.61V73.0374C450.727 68.8876 446.801 65.9191 442.204 65.9191C436.324 65.9191 434.768 70.7563 434.768 76.7146C434.768 82.6729 436.324 87.5101 442.204 87.5101C447.481 87.5101 451.878 83.5958 452.707 78.4727C454.016 82.5446 457.793 85.4901 462.242 85.4901C463.647 85.4901 464.981 85.1982 466.194 84.6708V88.7179L452.489 88.7586C452.489 88.7586 448.938 88.771 444.341 88.7878C428.909 88.8426 415.265 98.3233 409.464 112.412C409.778 110.621 409.943 108.778 409.943 106.896C409.943 102.101 409.313 97.7464 408.731 93.7249C408.39 91.3624 408.064 89.1147 407.893 86.9598C407.667 84.101 408.003 81.5376 408.35 78.8869C408.632 76.7259 408.923 74.5069 408.923 72.0224C408.923 56.9966 396.893 44.797 382.08 44.797C367.267 44.797 355.237 56.9966 355.237 72.0224C355.237 73.9367 355.367 75.703 355.493 77.4169C355.696 80.1906 355.89 82.8271 355.507 85.7317C355.189 88.1089 354.01 90.7034 352.737 93.5037C352.473 94.0845 352.204 94.6741 351.939 95.2726C350.36 98.8543 348.886 102.74 348.886 106.896C348.886 123.987 362.565 137.863 379.419 137.863C391.772 137.863 402.423 130.399 407.23 119.679L403.552 135.931L400.366 160.77L397.138 204.457C397.138 209.352 398.741 215.808 405.156 217.51C411.57 219.212 417.858 220.022 419.428 213.624L424.474 161.44C425.312 161.756 425.731 162.019 426.058 162.224C426.609 162.57 426.9 162.752 428.499 162.752H435.038C433.904 164.732 433.25 167.017 433.25 169.45C433.25 172.988 434.628 176.216 436.888 178.645C436.274 179.286 435.675 179.682 435.096 180.066C433.465 181.147 431.997 182.119 430.813 188.142C429.536 194.64 432.355 197.407 434.379 199.393C434.896 199.901 435.361 200.357 435.693 200.812C433.834 202.996 432.814 205.908 433.084 209.005C433.608 215.093 438.912 219.604 444.914 219.071L467.136 216.814C477.318 215.878 483.993 210.906 483.469 204.818C482.516 193.732 474.443 194.219 468.441 194.752L460.852 195.425C460.897 195.189 461.084 194.928 461.327 194.589C461.932 193.745 462.885 192.415 462.885 189.773C462.885 187.477 461.973 186.879 461.4 186.503C461.158 186.344 460.976 186.225 460.948 186.035L472.507 185.15C480.262 183.247 480.262 181.315 480.262 176.721C480.262 169.388 472.789 169.388 468.261 169.388H461.244C461.227 166.979 460.581 164.715 459.447 162.752H487.398C486.255 164.732 485.601 167.017 485.601 169.45C485.601 172.988 486.979 176.216 489.247 178.645C486.892 181.092 485.453 183.163 485.453 188.142C485.453 193.121 486.447 195.672 488.14 197.931C486.665 199.82 485.775 201.194 485.775 208.068C485.775 214.18 490.669 219.142 496.698 219.142L535.21 215.878C541.238 215.878 546.132 210.916 546.132 204.805C546.132 198.694 541.238 193.732 535.21 193.732L512.88 196.995C512.99 196.628 513.374 196.272 513.858 195.823C514.986 194.778 516.654 193.231 516.654 189.881C516.654 185.06 514.905 185.233 513.872 185.335C513.484 185.373 513.197 185.401 513.142 185.15H524.102C532.311 185.15 538.254 182.772 538.254 175.089C538.254 168.563 528.63 168.504 524.102 168.504H513.56C513.412 166.425 512.793 164.473 511.798 162.752H521.947C533.428 162.752 542.753 153.295 542.753 141.646C542.753 129.997 533.428 120.54 521.947 120.54H508.443C508.28 119.547 508.26 118.597 508.241 117.705C508.196 115.537 508.158 113.719 506.093 112.501L530.758 112.419C537.257 112.4 542.518 107.032 542.5 100.44C542.483 93.8471 537.188 88.5099 530.688 88.5294L486.258 88.6595V85.2229C486.991 85.3972 487.759 85.4901 488.544 85.4901C494.084 85.4901 498.576 80.9307 498.576 75.3148V61.61H520.106V74.7114C519.173 69.7087 514.846 65.9191 509.647 65.9191C503.767 65.9191 502.202 70.7563 502.202 76.7146C502.202 82.6729 503.767 87.5101 509.647 87.5101C515.143 87.5101 519.679 83.2622 520.229 77.8241C520.996 82.6693 525.14 86.3749 530.139 86.3749C535.67 86.3749 540.171 81.8155 540.171 76.1996V63.546C540.171 53.0398 531.77 44.5226 521.415 44.5226H497.268C486.913 44.5226 478.512 53.0398 478.512 63.546V71.8464C477.779 71.6721 477.011 71.5792 476.226 71.5792C474.822 71.5792 473.487 71.8721 472.274 72.3985V63.546C472.274 53.0398 463.873 44.5226 453.518 44.5226H429.38C424.407 44.5226 419.635 46.5267 416.111 50.0951C412.595 53.6627 410.624 58.5008 410.624 63.546V77.9692C410.624 83.5851 415.116 88.1445 420.656 88.1445C426.196 88.1445 430.688 83.5851 430.688 77.9692V61.61H452.21ZM434.913 138.236H450.284C450.276 138.426 450.267 138.617 450.267 138.809C450.267 141.109 450.965 143.255 452.151 145.056H431.706C430.511 145.056 428.499 143.274 428.499 141.642C428.499 141.642 428.499 139.311 430.813 138.676C432.756 138.143 433.901 138.195 434.575 138.225C434.704 138.231 434.816 138.236 434.913 138.236ZM470.657 138.236H488.079C488.07 138.426 488.061 138.617 488.061 138.809C488.061 141.109 488.759 143.255 489.945 145.056H468.79C469.986 143.255 470.675 141.109 470.675 138.809C470.675 138.617 470.666 138.426 470.657 138.236ZM508.469 138.809C508.469 138.617 508.46 138.426 508.452 138.236H519.929C521.787 138.236 523.287 139.764 523.287 141.646C523.287 143.528 521.787 145.056 519.929 145.056H506.585C507.78 143.255 508.469 141.109 508.469 138.809ZM444.419 112.677L452.634 112.659C450.71 113.864 450.711 115.599 450.711 117.652C450.711 118.559 450.712 119.527 450.546 120.54H434.907C437.333 115.807 438.976 112.696 444.419 112.677ZM468.499 112.62L490.629 112.537C488.596 113.754 488.567 115.555 488.532 117.7C488.517 118.593 488.502 119.545 488.34 120.54H470.649C470.485 119.534 470.481 118.571 470.477 117.669C470.467 115.587 470.459 113.83 468.499 112.62ZM389.149 109.266C389.149 103.95 388.099 99.6346 382.856 99.6346C377.622 99.6346 373.365 100.688 373.365 106.003C373.365 111.318 373.365 114.721 382.08 114.721C385.136 114.721 389.149 114.581 389.149 109.266ZM391.667 77.0101C391.667 72.4029 387.977 68.6619 383.441 68.6619C378.896 68.6619 375.205 72.4029 375.205 77.0101C375.205 81.6173 378.896 82.0942 383.441 82.0942C387.977 82.0942 391.667 81.6173 391.667 77.0101ZM463.132 22.1503C468.401 22.1618 472.676 26.5132 472.667 31.8628C472.649 37.2114 468.366 41.5452 463.088 41.5337L421.441 41.4461C416.163 41.4346 411.889 37.0832 411.906 31.7336C411.915 26.3849 416.207 22.0512 421.476 22.0627L463.132 22.1503ZM529.973 21.5185C535.242 21.5291 539.517 25.8806 539.508 31.2302C539.491 36.5788 535.207 40.9126 529.929 40.902L488.282 40.8135C483.004 40.802 478.73 36.4505 478.747 31.101C478.756 25.7523 483.048 21.4185 488.317 21.43L529.973 21.5185Z" fill="#584B3E"/>
</svg>
