<svg width="60" height="41" viewBox="0 0 60 41" fill="none" xmlns="http://www.w3.org/2000/svg">
<path d="M53.3332 3.41176C54.8673 3.41176 56.1592 2.3941 56.5847 1H56.7485C57.0774 2.07762 57.924 2.93032 59 3.26193V3.97335C57.608 4.40233 56.6 5.70339 56.6 7.23529C56.6 8.7672 57.608 10.0683 59 10.4972V10.6728C57.608 11.1018 56.6 12.4029 56.6 13.9348C56.6 15.4667 57.608 16.7677 59 17.1967V17.3723C57.608 17.8013 56.6 19.1023 56.6 20.6342C56.6 22.1662 57.608 23.4672 59 23.8962V24.0718C57.608 24.5008 56.6 25.8018 56.6 27.3337C56.6 28.8656 57.608 30.1667 59 30.5957V30.7701C57.608 31.1991 56.6 32.5001 56.6 34.032C56.6 35.5639 57.608 36.865 59 37.294V37.7381C57.924 38.0697 57.0774 38.9224 56.7485 40H56.5847C56.1592 38.6059 54.8673 37.5882 53.3332 37.5882C51.7992 37.5882 50.5072 38.6059 50.0817 40H49.9179C49.4924 38.6059 48.2005 37.5882 46.6664 37.5882C45.1324 37.5882 43.8404 38.6059 43.4149 40H43.2511C42.8256 38.6059 41.5337 37.5882 39.9996 37.5882C38.4656 37.5882 37.1736 38.6059 36.7481 40H36.5843C36.1588 38.6059 34.8669 37.5882 33.3328 37.5882C31.7988 37.5882 30.5068 38.6059 30.0813 40H29.9187C29.4932 38.6059 28.2012 37.5882 26.6672 37.5882C25.1331 37.5882 23.8412 38.6059 23.4157 40H23.2519C22.8264 38.6059 21.5344 37.5882 20.0004 37.5882C18.4663 37.5882 17.1744 38.6059 16.7489 40H16.5851C16.1596 38.6059 14.8676 37.5882 13.3336 37.5882C11.7995 37.5882 10.5076 38.6059 10.0821 40H9.91827C9.49277 38.6059 8.20085 37.5882 6.6668 37.5882C5.13275 37.5882 3.84082 38.6059 3.41532 40H3.25148C2.92257 38.9224 2.07596 38.0697 1 37.7381V37.294C2.39197 36.865 3.4 35.5639 3.4 34.032C3.4 32.5001 2.39197 31.1991 1 30.7701V30.5957C2.39197 30.1667 3.4 28.8656 3.4 27.3337C3.4 25.8018 2.39197 24.5008 1 24.0718V23.8962C2.39197 23.4672 3.4 22.1662 3.4 20.6342C3.4 19.1023 2.39197 17.8013 1 17.3723V17.1967C2.39197 16.7677 3.4 15.4667 3.4 13.9348C3.4 12.4029 2.39197 11.1018 1 10.6728V10.4972C2.39197 10.0683 3.4 8.7672 3.4 7.23529C3.4 5.70339 2.39197 4.40233 1 3.97335V3.26193C2.07596 2.93032 2.92257 2.07762 3.25148 1H3.41532C3.84082 2.3941 5.13275 3.41176 6.6668 3.41176C8.20085 3.41176 9.49277 2.3941 9.91827 1H10.0821C10.5076 2.3941 11.7995 3.41176 13.3336 3.41176C14.8676 3.41176 16.1596 2.3941 16.5851 1H16.7489C17.1744 2.3941 18.4663 3.41176 20.0004 3.41176C21.5344 3.41176 22.8264 2.3941 23.2519 1H23.4157C23.8412 2.3941 25.1331 3.41176 26.6672 3.41176C28.2012 3.41176 29.4932 2.3941 29.9187 1H30.0813C30.5068 2.3941 31.7988 3.41176 33.3328 3.41176C34.8669 3.41176 36.1588 2.3941 36.5843 1H36.7481C37.1736 2.3941 38.4656 3.41176 39.9996 3.41176C41.5337 3.41176 42.8256 2.3941 43.2511 1H43.4149C43.8404 2.3941 45.1324 3.41176 46.6664 3.41176C48.2005 3.41176 49.4924 2.3941 49.9179 1H50.0817C50.5072 2.3941 51.7992 3.41176 53.3332 3.41176Z" stroke="#1BC875" stroke-width="2"/>
<rect x="5.30029" y="5.32353" width="49.4" height="30.3529" stroke="#1BC875"/>
<path fill-rule="evenodd" clip-rule="evenodd" d="M25.3948 15.1652L25.626 14.473C25.7205 14.1903 25.7722 13.8861 25.7722 13.5671C25.7722 12.0207 24.5462 10.7671 23.0339 10.7671C21.5215 10.7671 20.2955 12.0207 20.2955 13.5671C20.2955 14.3122 20.5787 14.9873 21.0432 15.4899L21.5351 16.0221L21.2557 16.6963C21.108 17.0526 21.0258 17.4453 21.0258 17.8605C21.0258 18.8286 21.475 19.6889 22.1764 20.2365L22.7465 20.6815L22.5755 21.3938C22.5173 21.6362 22.4862 21.8905 22.4862 22.1539C22.4862 23.9065 23.8757 25.3273 25.5896 25.3273C26.6724 25.3273 27.6264 24.7612 28.1833 23.8974L28.5857 23.2733L29.3037 23.4139C29.4598 23.4444 29.6218 23.4606 29.7884 23.4606C29.9551 23.4606 30.117 23.4444 30.2731 23.4139L30.9912 23.2733L31.3936 23.8974C31.9505 24.7612 32.9044 25.3273 33.9872 25.3273C35.7012 25.3273 37.0907 23.9065 37.0907 22.1539C37.0907 21.9016 37.0621 21.6575 37.0085 21.4244L36.8673 20.8098L37.3085 20.368C37.8513 19.8246 38.186 19.0702 38.186 18.2338C38.186 17.8132 38.1016 17.4155 37.9502 17.0555L37.6228 16.277L38.2664 15.7432C38.8875 15.2281 39.2813 14.445 39.2813 13.5671C39.2813 12.0207 38.0553 10.7671 36.543 10.7671C35.0307 10.7671 33.8047 12.0207 33.8047 13.5671C33.8047 13.9007 33.8612 14.2183 33.9642 14.5121L34.2436 15.3091L33.5698 15.8013C33.2473 16.0369 32.9736 16.3378 32.7672 16.6845L32.5325 17.0791L32.0939 17.1898C32.0544 17.1998 32.0151 17.2107 31.9763 17.2226L31.5138 17.3638L31.0998 17.11C30.7172 16.8756 30.2699 16.7405 29.7884 16.7405C29.2337 16.7405 28.7231 16.9199 28.3051 17.2253L27.1764 18.0498L26.6538 16.736C26.49 16.3245 26.2383 15.9574 25.9216 15.66L25.3948 15.1652ZM28.648 15.8062C28.2945 15.9249 27.9649 16.0973 27.6684 16.314C27.5286 15.9627 27.3427 15.6357 27.1183 15.3408C26.9803 15.1595 26.8278 14.9903 26.6625 14.8351C26.7954 14.4374 26.8675 14.0109 26.8675 13.5671C26.8675 11.4021 25.1511 9.64706 23.0339 9.64706C20.9166 9.64706 19.2002 11.4021 19.2002 13.5671C19.2002 14.6096 19.5981 15.557 20.2472 16.2592C20.0432 16.7513 19.9304 17.2924 19.9304 17.8605C19.9304 19.1925 20.5506 20.3764 21.5118 21.1267C21.4328 21.4558 21.3909 21.7999 21.3909 22.1539C21.3909 24.5251 23.2707 26.4473 25.5896 26.4473C27.056 26.4473 28.3468 25.6786 29.0978 24.5139C29.3214 24.5577 29.5523 24.5806 29.7884 24.5806C30.0246 24.5806 30.2555 24.5577 30.4791 24.5139C31.23 25.6786 32.5208 26.4473 33.9872 26.4473C36.3061 26.4473 38.186 24.5251 38.186 22.1539C38.186 21.8147 38.1475 21.4847 38.0748 21.1683C38.8193 20.4228 39.2813 19.3835 39.2813 18.2338C39.2813 17.6582 39.1655 17.1103 38.9564 16.613C39.8229 15.8943 40.3767 14.7969 40.3767 13.5671C40.3767 11.4021 38.6603 9.64706 36.543 9.64706C34.4257 9.64706 32.7093 11.4021 32.7093 13.5671C32.7093 14.0313 32.7882 14.4767 32.9331 14.8899C32.4906 15.2132 32.1149 15.626 31.8315 16.1024C31.7748 16.1167 31.7186 16.1324 31.6629 16.1494C31.115 15.8135 30.4738 15.6205 29.7884 15.6205C29.3902 15.6205 29.0068 15.6857 28.648 15.8062Z" fill="#1BC875"/>
<path fill-rule="evenodd" clip-rule="evenodd" d="M35.2874 13.4073C35.2242 13.39 35.1551 13.3804 35.0828 13.3804C34.7804 13.3804 34.5352 13.5475 34.5352 13.7537C34.5352 13.9599 34.7804 14.1271 35.0828 14.1271C35.1551 14.1271 35.2242 14.1175 35.2874 14.1002C35.3986 14.9656 35.9186 15.6204 36.5433 15.6204C37.2491 15.6204 37.8212 14.7847 37.8212 13.7537C37.8212 12.7228 37.2491 11.887 36.5433 11.887C35.9186 11.887 35.3986 12.5419 35.2874 13.4073Z" fill="#1BC875"/>
<path fill-rule="evenodd" clip-rule="evenodd" d="M24.2897 14.1002C24.1785 14.9656 23.6585 15.6205 23.0337 15.6205C22.328 15.6205 21.7559 14.7847 21.7559 13.7538C21.7559 12.7228 22.328 11.8871 23.0337 11.8871C23.6585 11.8871 24.1785 12.5419 24.2897 13.4074C24.3529 13.39 24.4219 13.3804 24.4942 13.3804C24.7967 13.3804 25.0419 13.5476 25.0419 13.7538C25.0419 13.96 24.7967 14.1271 24.4942 14.1271C24.4219 14.1271 24.3529 14.1176 24.2897 14.1002Z" fill="#1BC875"/>
<path d="M28.3281 18.8785L31.249 18.8785V18.9114C31.249 19.718 30.5952 20.3719 29.7886 20.3719V20.3719C28.982 20.3719 28.3281 19.718 28.3281 18.9114V18.8785Z" fill="#1BC875"/>
<path d="M24.6766 25.3273L26.1371 25.3273L25.772 29.434L24.3115 29.434L24.6766 25.3273Z" fill="#1BC875"/>
<rect x="22.8516" y="29.0606" width="3.286" height="1.86669" rx="0.933345" fill="#1BC875"/>
<path d="M33.8047 25.3272L35.2651 25.3272L35.6302 29.4339L34.1698 29.4339L33.8047 25.3272Z" fill="#1BC875"/>
<rect x="33.8047" y="29.0606" width="3.286" height="1.86669" rx="0.933345" fill="#1BC875"/>
</svg>
