<svg width="640" height="512" viewBox="0 0 640 512" fill="none" xmlns="http://www.w3.org/2000/svg">
<g clip-path="url(#clip0_107_573)">
<path fill-rule="evenodd" clip-rule="evenodd" d="M0.000189152 362.668L90.071 373.334L90.0711 427.115L44.2151 431.382L44.2151 439.468L90.0711 447.594L90.0711 461.572C90.0711 482.895 74.1963 505.043 53.285 507.275L0 510.869L-1.02483e-06 487.495L50.8587 483.901C57.2107 483.223 64.2241 477.868 65.1176 469.463L23.4096 463.176L23.4096 409.601L64.2242 405.642L64.2241 394.278L0.000190171 385.911L0.000189152 362.668Z" fill="#584B3E"/>
<path fill-rule="evenodd" clip-rule="evenodd" d="M104.352 368.381L207.674 379.248V399.62L129.738 391.587L199.699 405.972L199.195 426.121L132.329 436.432H215.193V455.632H183.529C191.162 462.949 192.325 475.925 185.136 484.215C185.596 484.363 186.06 484.509 186.526 484.654C198.167 488.265 210.612 490.669 219.023 490.669L219.023 507.735C208.175 507.735 193.872 504.806 181.441 500.95C175.145 498.997 169.084 496.732 163.938 494.33C159.013 492.032 154.147 489.257 150.916 486.036C150.802 485.922 150.689 485.811 150.578 485.704C149.807 484.962 149.084 484.188 148.417 483.383L153.529 494.991L108.593 508.751L108.593 491.899V488.591V455.632L97.5042 455.632V436.432L104.352 436.432V420.023L139.772 414.561L104.352 407.278V368.381ZM129.991 455.632L129.991 483.236L145.679 479.311C144.725 477.496 144.044 475.568 143.698 473.541C142.892 468.815 144.043 464.323 146.508 460.647C147.813 458.702 149.436 457.032 151.29 455.632H129.991ZM160.574 470.677C160.612 470.898 160.865 471.884 162.468 473.427C162.651 473.603 162.836 473.783 163.021 473.968C163.521 474.467 164.382 475.13 165.636 475.914L170.478 474.104C171.673 473.657 172.18 473.044 172.444 472.532C172.76 471.921 172.911 471.069 172.74 470.13C172.57 469.192 172.128 468.447 171.617 467.986C171.189 467.598 170.499 467.202 169.222 467.202C163.908 467.202 161.336 469.244 160.738 470.136C160.533 470.44 160.553 470.552 160.573 470.674L160.574 470.677Z" fill="#584B3E"/>
<path fill-rule="evenodd" clip-rule="evenodd" d="M252.189 421.333V443.924C252.189 453.073 255.146 463.085 262.741 470.538C263.246 471.034 263.752 471.52 264.26 471.998C262.605 473.593 260.869 475.118 259.053 476.566L239.488 492.171L254.192 510.495L273.757 494.89C277.082 492.239 280.205 489.392 283.116 486.374C285.075 487.611 286.986 488.767 288.83 489.859C290.655 490.941 292.358 491.932 293.953 492.861C299.772 496.25 304.154 498.802 307.779 501.814L322.848 483.786C317.559 479.392 310.959 475.564 304.923 472.062C303.529 471.254 302.166 470.463 300.856 469.687C299.667 468.982 298.483 468.27 297.303 467.542C306.413 451.771 311.019 433.546 310.205 414.877L309.463 397.866H275.727V371.2H252.189V397.866H231.861V421.333H252.189ZM275.727 421.333V443.924C275.727 447.772 276.811 450.862 278.481 452.957C283.523 443.256 286.387 432.461 286.725 421.333H275.727Z" fill="#584B3E"/>
<path fill-rule="evenodd" clip-rule="evenodd" d="M436.212 380.799H391.276V369.066H367.738V380.799H336.711C325.485 380.799 316.383 389.873 316.383 401.066V413.866H328.769C322.321 418.443 317.811 425.613 316.825 433.97L316.573 436.103C314.591 452.899 327.467 467.696 344.283 468.252C341.617 477.887 336.268 486.573 328.856 493.303L315.313 505.601L343.131 512.001L349.763 503.224C357.746 492.66 363.914 480.847 368.015 468.268H373.164L381.376 502.401H428.723V478.935H399.037L396.839 468.268H405.185C421.139 468.268 434.072 455.374 434.072 439.468V437.335C434.072 427.653 429.281 419.088 421.933 413.866H436.212V380.799ZM412.674 409.512V404.266H339.921V409.076C341.734 408.72 343.605 408.535 345.515 408.535H357.519C367.201 408.535 374.679 417.018 373.434 426.591L371.067 444.801H375.709L377.68 426.623C378.796 416.333 387.509 408.535 397.89 408.535H405.185C407.775 408.535 410.286 408.874 412.674 409.512ZM340.202 436.711C340.519 434.025 342.802 432.001 345.515 432.001H348.996L347.332 444.801H345.263C342.061 444.801 339.576 442.015 339.95 438.845L340.202 436.711ZM405.185 444.801H399.384L400.772 432.001H405.185C408.14 432.001 410.535 434.389 410.535 437.335V439.468C410.535 442.413 408.14 444.801 405.185 444.801Z" fill="#584B3E"/>
<path fill-rule="evenodd" clip-rule="evenodd" d="M595.064 371.199C590.403 368.201 580.086 369.066 576.287 369.784L533.01 383.999V407.466L544.679 403.841V422.401H625.991V411.258L640 418.133V395.514L595.064 371.199ZM605.227 401.067H553.607L585.217 391.247L605.227 401.067ZM583.802 426.666H533.01V511.999H550.128V490.113L566.684 485.834V511.999H583.802V426.666ZM566.684 470.407V464.363L550.128 468.347V474.686L566.684 470.407ZM566.684 449.001L550.128 452.985V443.733H566.684V449.001ZM591.855 477.866V437.333H611.113V477.866H591.855ZM616.89 426.666V484.692L588.645 488.959V509.439L637.432 500.905V426.666H616.89ZM456.54 396.799H529.293V418.132L506.825 418.132V427.732L525.014 427.732V446.932H506.825V464.428L525.67 458.667L525.67 483.746L455.883 505.079L455.883 480L483.288 471.623V446.932H465.099L465.099 427.732H483.288V418.132H456.54L456.54 396.799Z" fill="#584B3E"/>
<path opacity="0.1" fill-rule="evenodd" clip-rule="evenodd" d="M23.7378 -0.000205994L92.2114 -0.000208978L92.2114 35.6172C92.2114 53.6489 76.5266 68.2665 57.1784 68.2665L23.7378 68.2665L23.7378 44.7998L57.1784 44.7998C65.973 44.7998 73.1025 40.5332 73.1025 35.6172L73.1025 19.1998L23.7378 19.1998L23.7378 -0.000205994Z" fill="#584B3E"/>
<path opacity="0.1" d="M23.7378 277.938C23.7378 279.467 25.2137 279.467 26.9226 279.467L92.2109 279.467L92.2109 256L42.9955 256L42.9955 249.445L92.2109 214.513L92.2109 172.8L23.7378 172.8L23.7378 196.266L70.6137 196.266L70.6137 205.182L25.3302 237.277C23.6638 238.409 23.7377 238.806 23.7378 239.516L23.7378 277.938Z" fill="#584B3E"/>
<path opacity="0.1" fill-rule="evenodd" clip-rule="evenodd" d="M63.4126 141.629L23.7378 166.4L23.7378 144.043L47.2756 128L47.2756 113.067L23.7378 96.1574L23.7378 73.6031L63.4126 99.8006L63.4126 110.934L92.2114 110.934L92.2114 132.267L63.4126 132.267L63.4126 141.629Z" fill="#584B3E"/>
<path opacity="0.1" fill-rule="evenodd" clip-rule="evenodd" d="M87.6049 307.201C90.5338 311.611 92.2109 317.253 92.2109 324.268C92.2109 345.475 76.8826 362.668 57.9741 362.668C39.0656 362.668 23.7373 345.475 23.7373 324.268C23.7373 317.253 25.4144 311.611 28.3434 307.201L23.7373 307.201L25.3297 288.001L92.2109 288.001L92.2109 307.201L87.6049 307.201ZM55.8343 307.201C66.4703 307.201 73.9228 311.531 73.9228 322.134C73.9228 332.738 66.4703 341.334 55.8343 341.334C45.1983 341.334 38.7809 332.738 38.7809 322.134C38.7809 311.531 45.1983 307.201 55.8343 307.201Z" fill="#584B3E"/>
</g>
<defs>
<clipPath id="clip0_107_573">
<rect width="640" height="512" fill="white"/>
</clipPath>
</defs>
</svg>
