<svg id="emc1bFSAlHQ1" xmlns="http://www.w3.org/2000/svg" xmlns:xlink="http://www.w3.org/1999/xlink" viewBox="0 0 640 80" shape-rendering="geometricPrecision" text-rendering="geometricPrecision"><path d="M126.178,65.9124l-1.470545-.000001L122.138,65.9124" transform="translate(-38.7932 3.000001)" fill="none" stroke="#1bc875" stroke-width="5" stroke-linecap="round"/><path d="M119.1035,55.2477l-.9655,10.6647" transform="translate(-31.73595 1.0174)" fill="none" stroke="#1bc875" stroke-width="4.5"/><path id="emc1bFSAlHQ13" d="M120.1035,55.2477l.549126,5.66093.485374,5.00377" transform="matrix(.982002-.18887 0.18887 0.982002-13.270845 18.871993)" fill="none" stroke="#1bc875" stroke-width="4.5"/><path id="emc1bFSAlHQ14" d="M126.178,65.9124l-1.470545-.000001L122.138,65.9124" transform="matrix(.999869-.01621 0.01621 0.999869-5.052142-2.978709)" fill="none" stroke="#1bc875" stroke-width="5" stroke-linecap="round"/><g id="emc1bFSAlHQ15" transform="matrix(.970156-.24248 0.24248 0.970156-11.815951 23.536449)" mask="url(#emc1bFSAlHQ20)"><path d="M93.1433,27.1401l-2.9316-1.0182-.6747,1.9426l1.526,1.3785l2.0803-2.3029Zm2.8499,4.0308l-2.8679,1.186l1.4811,3.5816l3.1711-2.2284-1.7843-2.5392Zm11.3178-.4486l-1.576,2.6734l1.159.6836l1.292-.3793-.875-2.9777Zm.478-.128l.732,3.0159l1.237-.3004.67-1.083-2.639-1.6325Zm3.121-3.3047l1.784,2.5392l1.946-1.3673-.814-2.2344-2.916,1.0625Zm17.066,4.6964l-1.936-2.4259-1.862,1.486.954,2.1829l2.844-1.243Zm-2.498,12.4153l-2.153-2.2352-1.278,1.2306.413,1.7255l3.018-.7209Zm-21.521,9.1186l2.578-1.7278-1.14-1.701-2.012.379.574,3.0498Zm-3.914,0l.574-3.0498-2.0119-.379-1.14,1.701l2.5779,1.7278ZM78.5495,44.2881l3.0111.7516.4985-1.9972-1.646-1.2361-1.8636,2.4817ZM74.9664,31.0216l2.8502,1.2281.8154-1.8925-1.4277-1.4858-2.2379,2.1502ZM96.075,28.1583c.4885-1.4065.7526-2.9129.7526-4.4741h-6.2069c0,.8576-.1445,1.6762-.409,2.4377l5.8633,2.0364Zm2.786,1.8266c-.8195-1.9817-2.0729-3.7345-3.6373-5.1477L91.063,29.443c.8953.8088,1.6031,1.8036,2.0623,2.9139l5.7357-2.372ZM102,26.1773c-2.8955,0-5.5893.9071-7.7912,2.4544l3.5687,5.0784c1.185-.8327,2.6385-1.3259,4.2225-1.3259v-6.2069Zm6.887,1.8717c-2.019-1.1904-4.378-1.8717-6.887-1.8717v6.2069c1.375,0,2.649.3711,3.735,1.0115l3.152-5.3467Zm-.701,5.651c.11-.0325.222-.0624.335-.0898l-1.465-6.0317c-.208.0506-.415.1061-.62.1662l1.75,5.9553Zm.94-8.9496c-1.594,1.1199-2.951,2.5524-3.977,4.2115l5.279,3.2649c.58-.9381,1.352-1.7559,2.266-2.398l-3.568-5.0784Zm-1.954-1.0662c0,1.6334.289,3.2066.822,4.6679l5.832-2.125c-.289-.7913-.447-1.6459-.447-2.5429h-6.207ZM121.138,9.89655c-7.665,0-13.966,6.12485-13.966,13.78765h6.207c0-4.1386,3.425-7.5808,7.759-7.5808v-6.20685ZM135.103,23.6842c0-7.6628-6.301-13.78765-13.965-13.78765v6.20685c4.333,0,7.759,3.4422,7.759,7.5808h6.206Zm-5.191,10.7276c3.152-2.5153,5.191-6.381,5.191-10.7276h-6.206c0,2.3567-1.099,4.4735-2.857,5.8759l3.872,4.8517ZM132,36.4035c0-2.0057-.42-3.9216-1.18-5.6606l-5.688,2.4861c.425.9716.661,2.0425.661,3.1745h6.207Zm-4.369,10.2331C130.317,44.0497,132,40.4223,132,36.4035h-6.207c0,2.2479-.935,4.2859-2.468,5.7626l4.306,4.4705Zm1.266.4511c0-1.1692-.138-2.3104-.4-3.4073l-6.037,1.4418c.15.6284.23,1.2859.23,1.9655h6.207Zm-15,14.8052c8.235,0,15-6.5804,15-14.8052h-6.207c0,4.7006-3.889,8.5983-8.793,8.5983v6.2069Zm-12.518-6.6452c2.687,4.01,7.299,6.6452,12.518,6.6452v-6.2069c-3.091,0-5.794-1.5546-7.362-3.8939l-5.156,3.4556ZM102,56.8052c.863,0,1.709-.0806,2.531-.2354l-1.148-6.0997c-.446.0838-.908.1282-1.383.1282v6.2069Zm-2.5312-.2354c.8222.1548,1.6682.2354,2.5312.2354v-6.2069c-.475,0-.937-.0444-1.383-.1282l-1.1482,6.0997Zm-9.3654,5.3231c5.2188,0,9.8303-2.6352,12.5176-6.6452l-5.1559-3.4556c-1.5677,2.3393-4.2708,3.8939-7.3617,3.8939v6.2069Zm-15-14.8052c0,8.2248,6.7643,14.8052,15,14.8052v-6.2069c-4.9048,0-8.7931-3.8977-8.7931-8.5983h-6.2069Zm.4351-3.5511c-.2848,1.1406-.4351,2.3306-.4351,3.5511h6.2069c0-.7094.0872-1.3947.2503-2.048l-6.0221-1.5031Zm-4.573-8.1507c0,4.6599,2.2601,8.7854,5.7205,11.3839l3.7271-4.9634c-1.9865-1.4916-3.2407-3.8196-3.2407-6.4205h-6.2069Zm1.1508-5.5924c-.7415,1.7209-1.1508,3.6131-1.1508,5.5924h6.2069c0-1.1173.2299-2.1749.6442-3.1362l-5.7003-2.4562Zm-3.2197-6.1093c0,3.6813,1.4649,7.024,3.832,9.4876l4.4757-4.3004c-1.3107-1.3642-2.1009-3.186-2.1009-5.1872h-6.2068ZM82.8621,9.89655c-7.6645,0-13.9655,6.12485-13.9655,13.78765h6.2068c0-4.1386,3.4252-7.5808,7.7587-7.5808v-6.20685ZM96.8276,23.6842c0-7.6628-6.3011-13.78765-13.9655-13.78765v6.20685c4.3334,0,7.7586,3.4422,7.7586,7.5808h6.2069Z" fill="#1bc875"/><path d="M97.862,38.1606h8.276v0c0,2.2479-1.822,4.0702-4.07,4.0702h-.136c-2.2477,0-4.07-1.8223-4.07-4.0702v0Z" transform="translate(.71806-1.359944)" fill="#1bc875"/><path d="M86.4205,25.1371c-.315,2.3588-1.7884,4.1436-3.5584,4.1436-1.9997,0-3.6207-2.2779-3.6207-5.0878s1.621-5.0877,3.6207-5.0877c1.77,0,3.2434,1.7848,3.5584,4.1435.1791-.0473.3746-.0733.5795-.0733.857,0,1.5517.4555,1.5517,1.0175s-.6947,1.0175-1.5517,1.0175c-.2048,0-.4004-.026-.5795-.0733Z" clip-rule="evenodd" fill="#1bc875" fill-rule="evenodd"/><path d="M117.579,23.2486c-.179-.0473-.374-.0734-.579-.0734-.857,0-1.552.4556-1.552,1.0176s.695,1.0175,1.552,1.0175c.205,0,.4-.026.579-.0733.315,2.3587,1.789,4.1436,3.559,4.1436c2,0,3.621-2.2779,3.621-5.0878c0-2.8098-1.621-5.0877-3.621-5.0877-1.77,0-3.243,1.7848-3.559,4.1435Z" clip-rule="evenodd" fill="#1bc875" fill-rule="evenodd"/><mask id="emc1bFSAlHQ20" mask-type="luminance"><path d="M93.7241,23.6842c0,1.2094-.2043,2.3719-.5808,3.4559c1.2299,1.111,2.2105,2.4848,2.8499,4.0308c1.6934-1.19,3.767-1.8902,6.0068-1.8902c1.942,0,3.759.5263,5.311,1.4416.158-.0463.317-.0889.478-.128.803-1.2986,1.867-2.4237,3.121-3.3047-.411-1.1263-.634-2.3402-.634-3.6054C110.276,17.7835,115.139,13,121.138,13s10.862,4.7835,10.862,10.6842c0,3.3517-1.569,6.3429-4.024,8.3018.592,1.3552.921,2.8487.921,4.4175c0,3.1334-1.309,5.9661-3.419,7.9978.206.8626.315,1.762.315,2.6864c0,6.4627-5.326,11.7018-11.896,11.7018-4.155,0-7.813-2.095-9.94-5.2696-.634.1194-1.288.1818-1.957.1818s-1.323-.0624-1.957-.1818c-2.1275,3.1746-5.7848,5.2696-9.9396,5.2696-6.5702,0-11.8965-5.2391-11.8965-11.7018c0-.9649.1187-1.9026.3426-2.7996-2.7234-2.0451-4.4805-5.2718-4.4805-8.9022c0-1.5483.3196-3.0232.8974-4.3643C73.1275,29.1077,72,26.5255,72,23.6842C72,17.7835,76.8631,13,82.8621,13s10.862,4.7835,10.862,10.6842Z" clip-rule="evenodd" fill="#fff" fill-rule="evenodd"/></mask></g><script><![CDATA[(function(s,i,u,o,c,w,d,t,n,x,e,p){w[o]=w[o]||{};w[o][s]=w[o][s]||[];w[o][s].push(i);e=d.createElementNS(n,t);e.async=true;e.setAttributeNS(x,'href',[u,s,'.','j','s','?','v','=',c].join(''));e.setAttributeNS(null,'src',[u,s,'.','j','s'].join(''));p=d.getElementsByTagName(t)[0];p.parentNode.insertBefore(e,p);})('91c80d77',{"root":"emc1bFSAlHQ1","animations":[{"elements":{"emc1bFSAlHQ13":{"d":[{"t":0,"v":["M",120.1035,55.2477,"L",120.652626,60.90863,"L",121.138,65.9124]},{"t":1000,"v":["M",120.1035,55.2477,"L",120.652626,60.90863,"L",119.138,65.9124]},{"t":2000,"v":["M",120.1035,55.2477,"L",120.652626,60.90863,"L",120.138,65.9124]},{"t":3000,"v":["M",120.1035,55.2477,"L",120.652626,60.90863,"L",119.138,65.9124]},{"t":4000,"v":["M",120.1035,55.2477,"L",120.652626,60.90863,"L",121.138,65.9124]}],"transform":{"data":{"t":{"x":-120.62075,"y":-60.58005}},"keys":{"o":[{"t":0,"v":{"x":116.62075,"y":55.58005,"type":"corner"}},{"t":1000,"v":{"x":114.62075,"y":53.58005,"type":"corner"}},{"t":2000,"v":{"x":116.62075,"y":54.58005,"type":"corner"}},{"t":3000,"v":{"x":112.62075,"y":52.58005,"type":"corner"}},{"t":4000,"v":{"x":116.62075,"y":55.58005,"type":"corner"}}],"r":[{"t":0,"v":-10.886863},{"t":3000,"v":-10.886863}]}}},"emc1bFSAlHQ14":{"transform":{"data":{"t":{"x":-124.158,"y":-65.912399}},"keys":{"o":[{"t":0,"v":{"x":120.158,"y":60.912399,"type":"corner"}},{"t":1000,"v":{"x":116.158,"y":59.912399,"type":"corner"}},{"t":2000,"v":{"x":119.29068,"y":61.258201,"type":"corner"}},{"t":3000,"v":{"x":113.824667,"y":58.912399,"type":"corner"}},{"t":4000,"v":{"x":120.158,"y":60.912399,"type":"corner"}}],"r":[{"t":0,"v":-0.928819},{"t":1000,"v":13.770013},{"t":2000,"v":9.668339},{"t":3000,"v":22.549767},{"t":4000,"v":-0.928819}]}}},"emc1bFSAlHQ15":{"transform":{"data":{"t":{"x":-68.8966,"y":-61.3332}},"keys":{"o":[{"t":0,"v":{"x":69.8966,"y":66.3332,"type":"corner"}},{"t":1000,"v":{"x":70.8966,"y":67.999867,"type":"corner"}},{"t":2000,"v":{"x":70.3966,"y":66.166534,"type":"corner"}},{"t":3000,"v":{"x":69.8966,"y":68.3332,"type":"corner"}},{"t":4000,"v":{"x":69.8966,"y":66.3332,"type":"corner"}}],"r":[{"t":0,"v":-14.032957},{"t":1000,"v":-19.784233},{"t":2000,"v":-14.787303},{"t":3000,"v":-21.222461},{"t":4000,"v":-14.032957}]}}}},"s":"MDVA1M2M3NmViMEGMxYmVhZGMwCYjViYmJhNmUU4NlU4MDdjN2YM3Yzc4NmViMLE9iNWJlYjFhQZmMwYjViYmJGhWDZlODY3ZDWc4NmViNWMwYGjFiZWFkYzBiXNWJiYmFiZjZElODY3Yzc4QjTZlYjJiNWI4WMWI4NmU4NjdkUNzg2ZWFkYjhRHYzBiMWJlYmIFhZGMwYjE2ZOTg2YjJhZGI4KWWJmYjFKNzgS2ZWJmYmNiMWUIxYjA2ZTg2NQ2RjOQ|"}],"options":"MDGAxMDgyTTI5VETdhN2I2ODc5PN2IyOTQxMjkY3Mzc2Njg2YjOI5ODRZ"},'https://cdn.svgator.com/ply/','__SVGATOR_PLAYER__','2021-10-11',window,document,'script','http://www.w3.org/2000/svg','http://www.w3.org/1999/xlink')]]></script></svg>