<svg width="444" height="438" viewBox="0 0 444 438" fill="none" xmlns="http://www.w3.org/2000/svg">
<mask id="path-1-inside-1_70_3537" fill="white">
<path fill-rule="evenodd" clip-rule="evenodd" d="M160.759 81.2227C160.759 90.3423 159.247 99.1081 156.461 107.282C165.561 115.659 172.818 126.018 177.549 137.675C190.08 128.702 205.425 123.422 222 123.422C236.369 123.422 249.814 127.39 261.302 134.293C262.468 133.943 263.646 133.622 264.835 133.327C270.779 123.535 278.655 115.052 287.933 108.409C284.896 99.9156 283.241 90.7628 283.241 81.2227C283.241 36.7292 319.228 0.660034 363.621 0.660034C408.013 0.660034 444 36.7292 444 81.2227C444 106.496 432.389 129.05 414.222 143.821C418.606 154.04 421.034 165.301 421.034 177.13C421.034 200.757 411.348 222.117 395.738 237.437C397.263 243.941 398.069 250.723 398.069 257.693C398.069 306.424 358.655 345.928 310.034 345.928C279.289 345.928 252.225 330.132 236.481 306.195C231.792 307.095 226.951 307.566 222 307.566C217.049 307.566 212.208 307.095 207.519 306.195C191.775 330.132 164.711 345.928 133.966 345.928C85.3454 345.928 45.931 306.424 45.931 257.693C45.931 250.417 46.8096 243.347 48.4663 236.584C28.3133 221.163 15.3103 196.833 15.3103 169.458C15.3103 157.783 17.6756 146.662 21.9519 136.549C8.34373 122.118 0 102.647 0 81.2227C0 36.7292 35.987 0.660034 80.3793 0.660034C124.772 0.660034 160.759 36.7292 160.759 81.2227Z"/>
</mask>
<path d="M156.461 107.282L134.723 99.8723L129.894 114.041L140.907 124.179L156.461 107.282ZM177.549 137.675L156.269 146.312L167.228 173.311L190.919 156.347L177.549 137.675ZM261.302 134.293L249.475 153.978L258.17 159.202L267.887 156.294L261.302 134.293ZM264.835 133.327L270.35 155.621L279.55 153.345L284.467 145.244L264.835 133.327ZM287.933 108.409L301.303 127.081L315.392 116.993L309.557 100.676L287.933 108.409ZM414.222 143.821L399.735 126.002L386.281 136.94L393.117 152.875L414.222 143.821ZM395.738 237.437L379.652 221.047L370.43 230.097L373.379 242.677L395.738 237.437ZM236.481 306.195L255.668 293.575L247.231 280.747L232.153 283.641L236.481 306.195ZM207.519 306.195L211.847 283.641L196.769 280.747L188.332 293.575L207.519 306.195ZM48.4663 236.584L70.7724 242.048L74.3437 227.467L62.422 218.345L48.4663 236.584ZM21.9519 136.549L43.104 145.494L48.9394 131.694L38.6606 120.794L21.9519 136.549ZM178.198 114.692C181.787 104.163 183.724 92.8954 183.724 81.2227L137.793 81.2227C137.793 87.7893 136.707 94.0532 134.723 99.8723L178.198 114.692ZM198.829 129.038C192.803 114.193 183.574 101.026 172.014 90.3851L140.907 124.179C147.549 130.293 152.832 137.842 156.269 146.312L198.829 129.038ZM222 100.457C200.469 100.457 180.477 107.333 164.179 119.003L190.919 156.347C199.684 150.071 210.381 146.388 222 146.388L222 100.457ZM273.129 114.607C258.171 105.62 240.654 100.457 222 100.457L222 146.388C232.085 146.388 241.456 149.161 249.475 153.978L273.129 114.607ZM267.887 156.294C268.7 156.05 269.521 155.826 270.35 155.621L259.32 111.034C257.771 111.417 256.237 111.837 254.717 112.291L267.887 156.294ZM274.563 89.7361C262.768 98.1812 252.76 108.961 245.203 121.411L284.467 145.244C288.798 138.109 294.541 131.922 301.303 127.081L274.563 89.7361ZM260.276 81.2227C260.276 93.4348 262.396 105.201 266.308 116.141L309.557 100.676C307.395 94.6297 306.207 88.0908 306.207 81.2227L260.276 81.2227ZM363.621 -22.3055C306.496 -22.3055 260.276 24.095 260.276 81.2227L306.207 81.2227C306.207 49.3633 331.961 23.6256 363.621 23.6256L363.621 -22.3055ZM466.966 81.2227C466.966 24.095 420.746 -22.3055 363.621 -22.3055L363.621 23.6256C395.28 23.6256 421.034 49.3633 421.034 81.2227L466.966 81.2227ZM428.71 161.64C452.019 142.689 466.966 113.689 466.966 81.2227L421.034 81.2227C421.034 99.302 412.759 115.412 399.735 126.002L428.71 161.64ZM444 177.13C444 162.132 440.917 147.795 435.328 134.767L393.117 152.875C396.296 160.285 398.069 168.47 398.069 177.13L444 177.13ZM411.824 253.827C431.659 234.361 444 207.164 444 177.13L398.069 177.13C398.069 194.351 391.037 209.873 379.652 221.047L411.824 253.827ZM421.034 257.693C421.034 248.946 420.022 240.406 418.098 232.196L373.379 242.677C374.503 247.476 375.103 252.5 375.103 257.693L421.034 257.693ZM310.034 368.894C371.387 368.894 421.034 319.058 421.034 257.693L375.103 257.693C375.103 293.79 345.922 322.963 310.034 322.963L310.034 368.894ZM217.294 318.815C237.097 348.922 271.223 368.894 310.034 368.894L310.034 322.963C287.356 322.963 267.354 311.342 255.668 293.575L217.294 318.815ZM222 330.531C228.411 330.531 234.701 329.921 240.809 328.749L232.153 283.641C228.883 284.268 225.491 284.6 222 284.6L222 330.531ZM203.191 328.749C209.299 329.921 215.589 330.531 222 330.531L222 284.6C218.509 284.6 215.117 284.268 211.847 283.641L203.191 328.749ZM133.966 368.894C172.777 368.894 206.903 348.922 226.706 318.815L188.332 293.575C176.646 311.342 156.644 322.963 133.966 322.963L133.966 368.894ZM22.9655 257.693C22.9655 319.058 72.6126 368.894 133.966 368.894L133.966 322.963C98.0782 322.963 68.8966 293.79 68.8966 257.693L22.9655 257.693ZM26.1602 231.12C24.0689 239.658 22.9655 248.562 22.9655 257.693L68.8966 257.693C68.8966 252.273 69.5504 247.037 70.7724 242.048L26.1602 231.12ZM-7.65517 169.458C-7.65517 204.274 8.91332 235.236 34.5106 254.823L62.422 218.345C47.7132 207.09 38.2759 189.392 38.2759 169.458L-7.65517 169.458ZM0.799925 127.605C-4.65202 140.497 -7.65517 154.656 -7.65517 169.458L38.2759 169.458C38.2759 160.91 40.0031 152.827 43.104 145.494L0.799925 127.605ZM-22.9655 81.2227C-22.9655 108.727 -12.2281 133.776 5.24331 152.305L38.6606 120.794C28.9156 110.459 22.9655 96.5666 22.9655 81.2227L-22.9655 81.2227ZM80.3793 -22.3055C23.2542 -22.3055 -22.9655 24.095 -22.9655 81.2227L22.9655 81.2227C22.9655 49.3633 48.7198 23.6256 80.3793 23.6256L80.3793 -22.3055ZM183.724 81.2227C183.724 24.095 137.504 -22.3055 80.3793 -22.3055L80.3793 23.6256C112.039 23.6256 137.793 49.3633 137.793 81.2227L183.724 81.2227Z" fill="#1BC875" mask="url(#path-1-inside-1_70_3537)"/>
<path fill-rule="evenodd" clip-rule="evenodd" d="M337.288 77.9385C335.963 77.5819 334.516 77.3856 333 77.3856C326.658 77.3856 321.517 80.8208 321.517 85.0582C321.517 89.2957 326.658 92.7309 333 92.7309C334.516 92.7309 335.963 92.5346 337.288 92.178C339.619 109.963 350.522 123.421 363.621 123.421C378.418 123.421 390.414 106.245 390.414 85.058C390.414 63.8706 378.418 46.6948 363.621 46.6948C350.522 46.6948 339.619 60.1528 337.288 77.9385Z" fill="#1BC875"/>
<path fill-rule="evenodd" clip-rule="evenodd" d="M106.712 92.1789C104.381 109.964 93.4776 123.422 80.3793 123.422C65.5819 123.422 53.5862 106.246 53.5862 85.0588C53.5862 63.8715 65.5819 46.6957 80.3793 46.6957C93.4777 46.6957 104.381 60.1537 106.712 77.9394C108.037 77.5828 109.484 77.3865 111 77.3865C117.342 77.3865 122.483 80.8217 122.483 85.0591C122.483 89.2966 117.342 92.7318 111 92.7318C109.484 92.7318 108.037 92.5355 106.712 92.1789Z" fill="#1BC875"/>
<path d="M191.379 190.38L252.62 190.38V190.38C252.62 207.291 238.911 221.07 222 221.07V221.07C205.088 221.07 191.379 207.291 191.379 190.38V190.38Z" fill="#1BC875"/>
<path d="M114.828 322.911L145.448 322.911L137.793 407.31L107.172 407.31L114.828 322.911Z" fill="#1BC875"/>
<rect x="76.5518" y="399.637" width="68.8966" height="38.3632" rx="19.1816" fill="#1BC875"/>
<path d="M306.207 322.91L336.828 322.91L344.483 407.309L313.862 407.309L306.207 322.91Z" fill="#1BC875"/>
<rect x="306.207" y="399.636" width="68.8966" height="38.3632" rx="19.1816" fill="#1BC875"/>
</svg>
